<mxfile host="app.diagrams.net" modified="2022-04-24T13:04:08.627Z" agent="5.0 (Macintosh)" etag="312AAo3I7Gdbgk2maBI8" version="17.4.6" type="github">
  <diagram id="YPu3gUVJddb1r6JpXxtX" name="Page-1">
    <mxGraphModel dx="946" dy="547" grid="1" gridSize="10" guides="1" tooltips="1" connect="1" arrows="1" fold="1" page="1" pageScale="1" pageWidth="827" pageHeight="1169" math="0" shadow="0">
      <root>
        <mxCell id="0" />
        <mxCell id="1" parent="0" />
        <mxCell id="ehcvicH4qVkx-c4z3jnV-1" value="db&lt;br&gt;(traditional db)" style="shape=cylinder3;whiteSpace=wrap;html=1;boundedLbl=1;backgroundOutline=1;size=15;fillColor=#f5f5f5;fontColor=#333333;strokeColor=#666666;" vertex="1" parent="1">
          <mxGeometry x="210" y="80" width="60" height="80" as="geometry" />
        </mxCell>
        <mxCell id="ehcvicH4qVkx-c4z3jnV-3" value="" style="rounded=0;whiteSpace=wrap;html=1;fillColor=#d5e8d4;strokeColor=#82b366;" vertex="1" parent="1">
          <mxGeometry x="160" y="200" width="310" height="140" as="geometry" />
        </mxCell>
        <mxCell id="ehcvicH4qVkx-c4z3jnV-5" value="ontology extractor" style="rounded=0;whiteSpace=wrap;html=1;fillColor=#d5e8d4;strokeColor=#82b366;" vertex="1" parent="1">
          <mxGeometry x="180" y="240" width="120" height="60" as="geometry" />
        </mxCell>
        <mxCell id="ehcvicH4qVkx-c4z3jnV-6" value="" style="rounded=0;whiteSpace=wrap;html=1;fillColor=#d5e8d4;strokeColor=#82b366;" vertex="1" parent="1">
          <mxGeometry x="160" y="390" width="480" height="130" as="geometry" />
        </mxCell>
        <mxCell id="ehcvicH4qVkx-c4z3jnV-7" value="DB&lt;br&gt;(fdb/hbase&lt;br&gt;.......)" style="shape=cylinder3;whiteSpace=wrap;html=1;boundedLbl=1;backgroundOutline=1;size=15;fillColor=#f5f5f5;fontColor=#333333;strokeColor=#666666;" vertex="1" parent="1">
          <mxGeometry x="470" y="420" width="60" height="80" as="geometry" />
        </mxCell>
        <mxCell id="ehcvicH4qVkx-c4z3jnV-8" value="" style="shape=image;imageAspect=0;aspect=fixed;verticalLabelPosition=bottom;verticalAlign=top;image=data:image/png,iVBORw0KGgoAAAANSUhEUgAAA+gAAAFNCAYAAACT7UWQAAATSXpUWHRSYXcgcHJvZmlsZSB0eXBlIGV4aWYAAHjaxZpnkhy5EYX/1yl0BAAJl8eBjdANdHx9r6bJXRrZUIQ42ulmsxwyXz6D1nP+9tf7/IU/udb+5NJ69VoDf7JnT4M3PXz9+XqNIb+/3z+nB/t8+sPnT96ft4lXHfJ1WKjn6zUOPi9/nNDy5/P54+dPW19vUv9c6PMP3y5ounPizee4/rmQpa/P4+fvj3/OG/lPy/n8l1rIf77oz3/PjWLswvUsPelYtMDvrrsYT2Bug9fC72gx6ZP8fhL5naz9vnbP97c/Fa+UzxP+VLswPkfYj6V4Qv0cUH+q0efzWH5fu7dCf36iGL537Yd/SCV+O/WX2t27+73na3UjVypVn8+iwucS7zsOnJTS3tMqP43/Cu/b++P8dJa46Nimm5Of9USPiWrfmOOOI9543tcVF4+Y00mN15RWsvezbi15WvbVAn7iTY327Mc6nVh0zfg4fX+W+N7X3/ut2LnzjhyZIheLnPHLz/O7D/+bn+8XulfQpcD9bX38anASpnkMdU6/OYqGxPupaXnr+/484cfefGus0cHylrmzwBHm1yVmiX9gy94+G8eVkJ8P6GPbnwtQIu5deBhwnWOo0UqsMbSUWozUsdOfwZMny2nSgVhK2vG59Mas0pyedG/OafE9NpX09THUQiOKVWu0hgGiWTkX8NNyB0OjWMlPKaWWVnrxMqrVXEuttVVx1GjWciutttZ68za69dxLr7313r0PT25QWPHq7fHu7mNw08GlB2cPjhhjpmkzzzLrbLNPn2MBn5VXWXW11ZevsdO2zfjvutuz+/Y9TjxA6eRTTj3t9ONnXLB27eZbbr3t9ut3fO/ap6s/di3+1Ll/3rX46Zo6lt/j2h9d4+PWvl0iik6KekbHUo50vKkDADqpZ6HHnJM6p54FTwxFSXQtFjVnR3WMDuYTU7nxe+/+6Nw/7dtT8n/Ut/SPOveodf+Lzj1q3adzv/btN13b41UUexukKVRNg12IjQNOH6kPadL3V6/77NHm9J6twl9ukCHcpclY6mB26xG9jHY7Naq5j9xrhrdmnMn6GQPeyu1IsRbrrc7zH67Lv2Xen9I95XVWbTmpdX2d4M+Zm5NagboQu8L//rvX5z86ocDFGAbLN+/daE/1vcEa5Xj6gU7gA1Vw9dIMjLVX2DdNcfoTKXJbJZYJRBYtbVC8e6cze1ALm+rPE7ym0JelkW7KtZ1rqznX9sC9z1nHwTQdj5sLzQ7rFEff292ohETmTD8TqmUqer0nis8uJadpOVfzsGlYvZcHnqCTOx3gn2MF6nbKZFTmTb3BicyXPyXlcEZjYDLzXlnx8V2XegUMIwhLmfHpvm5cp0CCgVdg1bn5xk0BGIzCeUBL2pSrU5dd2/LpNZe+T5yjrxXn9ttrYYbSmjO3Vv3VxrhaWcalop/Lyp8xalq1CId5Ah1b806eWZdjDHjW3to4jXkA/PmatzLyHHMuSkXbWqOlzR4qM8/tEDStmPX6OlqA38lY0zXz6CH3PQoTiRfhvDqNAV9zz71SXQ5ReMRooRTwAb/a+/b7GwR/xLGZX2uTvnjL0/e1hj5EJqYMNZdl06PcH59ayoRg6K2BdkwGFAabpA/WC1MR7w6pXsC1FyMcy97c4roF8YZu8FxaM720gCRN9aW3egsF21DKWRQijXXgvHxHPYOigwSs22KqDdNAM0+rM6r9DDQkvFrcK4yxc1jpVzb49jonwChl7Z1TorWVStG3/fTdKCgPgz7SlWC79M64OAZg7X5UqRpH2U4RWMluEzIWDTMCQwwHizQYkhJl7rVEGJslDEoKDa0y9wEDyUVFLDQaFFwAL0gDgQg2nm52DOIdHdV+wKXAOb69zjms+sVvUMxxeDvAxDylAaNTbbaLwp+zfe6ejjrvMNN4mMyQvEhKIK8OrMpYHZYLfrhrZb1WLzQ2sY2Lyb99l/Zr/Z6wC71HJmaD+rdnYN6ZzjitOeU8deHC8+TizWGCXk7nYjYEd4AOKPfK0x4GqC3xDu3AxGPJMwpAeAkYnQYJwRcsdsYzEYHOumgB0sBf2l4A8mosIX+Bp591tc4WOaCLq0uDERmcq45CAZvZPrFSERENs4z99B7KCeCwHpYO1QLhztMx1qPDgovyCGargMR+w6zKEQxNYoChQG6GM21j4mApB9g3XPJ56ioG8EUa1rkjuIRrkm39GhuWEpTs4ttQ7rI6JwOVO1Y9yDsFQUBHLk92z1L2cYYebMTOfT3u0GHqTEFo0c1zVxQ2VhtpA4bklDUx+4EKIb8YnSfxcTtZbHAtHIZFlVjyGRlbAaAgF8fVyIyTGxBDfqfRZ0rV+lyMO5yTnoYa44yh5DVZK5YhzAzSDgSxDZldeSR0PO8jhoSkuJuMawRMK6UL35SV9oMxgcM2RjseObccKmchOBMkMlyQBii3Xee2scat3CyJ2Qcc3Nb7rz78PBC/6qGDWU2dkDz8DRjBj0v8YS4wjgqeQzPQDUd3KPo6cgLG1Mmy5eemsMFbJjziXMaGSCFZxqJcBwLwz77EJW50copjcH2s0j27MpcYMfoG7V25kYXdKFmHDp0C9cWSx14H4DZsOB4HQaj0mAkZ3gAAZuQOfwHnEZpBfJDsNm8Ht0hidAWrCFaDhurtALmO/ifkEc6MrddW7owXUvKCMpWJPGMQ8ZAICnkt4M5kFU/tCMwkQjCaZPy90VIMJzjeFEmnrD1mhWL6xCHVij8b2fvDpIkSfXvMidF+VYcBg7nPlRGuCCiCMQptIVZgypiJMhLjg2tF3bQ+7LGjLQWAoIkwBSSQbKJk4zBWTAPeTxiyzECzvkV6JcfjuqCUL2DUGivOjSgKizLpYfLEPBCjXQ+F4JnuLEh0xDCkumste0DArB/15+OEBcI0Yszxif08vI9JgsXdGGzHINNZ7ASanqlCbfh0ITQSXnwTRxnuRN1oKLMJM8/S8AGPZSqLwaH6Rknfx62LEdpgDpcErjaKAha3THXAMtFSSnAXD4TXXfs95zkYDr1BJ4kUcvX9wBiw5m4JIFxma4erjOc6F8jOL7GpVATWpLxhDgx7uWvhERI444zAcCDXB0+Bl/ClkH56Jt3QUew5vutKH5DFvRqEDmeof8wa1Tor14pEd7HHlgXgMsHlJn2c3SQI2L6FsIEUawfrmPLFS+I1y8JAMf2RIZUOQloNz40oZupFNSAK7FqOhmpQ8L4YCpwfNEZb+IVI1XmPtn7obHyYfRiaeMt6xtGQceiV6SpTeQFK7Xgx2pcz8WMjyQQcxN96hfohheDICe23QzVZP8KasANLRIzIFTcRSb25q2jwZK8pzc7HBlEFUBVJADgiamRlPuA8N9wKeokXrpexp6FGCqqDHETig73yBg9jtdBk7oYdsMeQK2kslp9vWA8+/hALQSTcgoQhrfBLJXFhiXBmWi5RTqbolCKdJ6FuaegUz8DwiwHaGTNKkTcjTUsZLCeClQM9stZUm+d25e7JO7kHOYwamCAgHru4DhXI0IQAaXsif6hZdgRqFw7xOAuaTmWUNou1gBKRf/GiV7xfsQP0Hg0fF7tsSYHsqW8f1+U2ILQ3zArC15eSKCvAA+Gz/N06woxDwTJ6rJTnq1hrz6ZhDfvBshgugbCDKzyp4AMmwk+tiSToux+lAucp0W7sDpnIEBHyAxHHBnGWFuOhHv56Mb64obxGx57V2d+QSTEoQwaWF39yIQOJM7whVwod05ZL1PaJnGE/nnuc2L6skWFQfOpJFAF/5E1CEqZfs95pzW1OENsVBDUc19R+3cYM3zsMz/NgCfKsqZ7J1MkTZMfNdwAO0DH+MBijY/Tqte5kHMP6apEYYW0Bx8pRuT6geDAEC0u648ER0FLUHz6rELXngQclP2BD603lKFcjUKybZeGEG54oLh7kGUnEBoqBk/fJkIWMc8WXxwQa4fFdsPE4G5Kyd23rNVwhMnXwB6UMzGbLrT+ICR1mhgBDZDYuVNDxAziZco7hTogIhYxFAsJN4iVZW8Nmc9IimCHO++7JrO3bmQ1C4yVf8KiRSIfrymMQNgEhopKU7YA//xvyixAg44Uicu/MBPIE99kUB4hBk3At/6HM3NM6N8FtAExYuJuLHAIdXqQQcSA0s5kbsDIbfmH3Z0tiDLFG/5vjRHnXiJqQjqLfhGuP7IMDuyWbgXDg6MuJB/eRoeSyDe/G0KYDCg1OMmzMIunyA1vjj4kkoHmhhVgexrQgW4fZYfa0amBex8YojFjSs+e4MjF2LtLTO6ziMvTLcANjZlQW0m/ANCWwJQ+8OR3tLosiRKM5B2Q9GX+cUU09BqqIrWJSEgKCyR5KdwQJbfkU0SamDf7fSWPatcvE4R2PCaEh2XzAnOM4uMFSDgckxZTK2rsbCcCPdgOIQ4x9FYEAfXCCgpBwx2v+wpNJW6Ix1OQqMuHRoiZ1/7QvUrkkqYOMDM/AngMKd6hR8qPdN+2x9YnDlclyFrygd9SKmHQQwwo0GEXOYOVpkZXRTlvkBtOYMDULuYFzSEfLQhpYv6Bg/tprPvdGdNi6FdIJ0+yMmeLSqIbLBWMADvVsCrFQ+1GCjIwVcEN8RtiXFlw4ZnA3RB1bqsM2RckYVD9Y+jdn4FiAyuABtIc80CCsH1fnHIwcigcRyG3LO9wAxnPiapn42CANFnAB/UaMad3SjvwCT7JhMTyDZAvB9khgRW+nAodcB6Rs2iczql4ZGKIDojlde8wwRi43vftg0fEHltODuC9QgdPlXk3hqKMUnZsY0aUm9BehwBYjgujFgnRVR5V5wwM5dx5qmj0UVBwdNz3bA3OHMiDm/IyK1caYM4KbhL7fPSCsK30i4PSA0DFJnHkmWfOB0Ji/ripJfmBzzCKdAueNEyceOcKTSCUDjT1j0DCQ0AHXKO8XMfAn+e8ZuJqOq954zqsdICdasurKh0iLSa7BNUDX1kdN177GCC+DXcdGQBtonZFFIFMK6W3hvQCaLWYdwMAg+Aa8MUjlBgT2/L6/Ai7LIZUgURP7hteYKC2YX+RS+Q0FxpT0JRL8BYmkiVmAr5UHTf6/ycPjIpmUsNYNLQ8Wo0R1SJAVOjnaC8PwLkkHtWhuheGX9yXAIO7aJgDUMsgShnUi0A8BKSYhMlnx6UE9h0ormZzkg5qK4NEd2UeISoyP0iGtmyFneaT0IlPRBjpkXwH4pAem4PxMMDEpbWs2jHoVJhWxwItpEw8G0OjsPGFtYrmME1Z0w8ZNYRDH+dRM7QVXiQ2BSl/4+ASXdUeSdG6krJKgouvyFzjvlVAIVkXcSBC0th+1WYfkaxqTdqK1z4MCZ2yPTpzkful8XZgDCBK03WksXCFFyHacGS4NW4CtMXifiHjk25gxiYD7ifj+N37GeJ1sBnXg5N94QVjjL8ewmjwfitWvQwkP1wRit2k4kvaF8YhMO5LFhzhBRAsRJvWSxPGXV8xON8kSZHhMaZDngLsfZMFSkwYLKljvESKWlJozXCwaZ4G9zKj4JtMXFMBfGZxRQeBOoozMgzZ9WQdX6HA/oMb5rHfnnrFTuwbOuLKCoq2sS3eZYvyORcijTFOCtFWSjceMqNcHET6jvkGpAXZcELs2OdrUnuxocob0vBa8HcmW4EskYCXaS030GxXp2jyzRKgYTVssFsrSnjkK8PpsHhj7BEPe8Xrdg+mgyBvlb9qZAMgoXCbTLm22Ctjisgu148QbyAzENXhI38wcXREjvxyXyeBQ/uq3amcZ1+76zsEecJInT1L0PbXLP9G/pa9DK1FLmT9uKsusKcVpPxY/S35dh+vVa/oWKZfJ0hBPClRtOghk6bOT5SBXzCCWnJhs3H4q79m+2vsNVxtsMIfriyHwBM1sf6LCj77BlSMgtX7NIULl2maDKHBYip/Ah+EhPhx9H0yOw2cHuEff8nKj/mAHMehNO9+k6tleo3i10UqPtcmAo8BxET0ZmhjPKuR3lJLgom9XGVOoA+p9kBwovVJVk7gg+zNCtG+wQOYCgay/thKxC7m4/j8UwSKdPtxLX9UE7VzUh+a0gOVetQphJF9qeRioiAkGwWTlyJwOLkuawLfhePWNnb74QOOLLDIXPI9omLO096z9Wk48B3AjKRV3znl4LxHfaSTAo4lnZnH9HF613DurFGzzRHgoTJnqGIAZPHGRYkZRG5y0SSNNemoS+t9/DUSPx3rKKi6/jK4gUbsbcazi+jBduLyjmiFgCVjcNXQPfZXAALiUb533W5ExNym7RO1+ehkdc5WHQgTVFsPhVj0G3D/d4rYoEv+KSHaImIMp7iliuV3Iwc/xJOlMSZCeBoiZrosfAwO0HWDj7cVgETeOZ8JesW6cVoYPMG2uKBX1REgqC92yI/IAJMPMmjvurMrlsUJoUtt+VI+GQ7NAXeyUmAx9X9mOHoxi0wpynsuuBm1jpne/H1HEKcprDxkUCNFukRUpB91Ch5k01o2bmxlnga3RNzRkv+Hyre6BSnI6Xh7fMTCIlbdT335URdUmZKEa3NfR2KktbEjeOzQiF6r9Niw0ylkIeSUPZg3nxqiXt8/9zB++Gfj19Qn/4oB/9/X/cCFSMC4rPH8HywCOoo53bU0AAAAEZ0FNQQAAsY8L/GEFAAAABmJLR0QA/wD/AP+gvaeTAAAACXBIWXMAAIppAACKaQGxZbMyAAAAB3RJTUUH4wULCwEerKQoPgAAIABJREFUeNrs3XeYVcXhxvHvnHvvdnYpIh0UFVBAEATFFkXFRBRjN9GYmGiMYvuBJYliT0TBihKNxt5FDUoRFBGVJlIUpLP0vsv2css58/vjnA0bQ1nYwiLv53nug+J6d3fO3DnzzsyZMdZaRERERERERGTfclQEIiIiIiIiIgroIiIiIiIiIqKALiIiIiIiIqKALiIiIiIiIiIK6CIiIiIiIiIK6CIiIiIiIiKigC4iIiIiIiKigC4iIiIiIiIiCugiIiIiIiIiCugiIiIiIiIiooAuIiIiIiIiooAuIiIiIiIiIgroIiIiIiIiIgroIiIiIiIiIqKALiIiIiIiIqKALiIiIiIiIiIK6CIiIiIiIiIK6CIiIiIiIiKigC4iIiIiIiKigC4iIiIiIiIiCugiIiIiIiIiCugiIiIiIiIiooAuIiIiIiIiooAuIiIiIiIiIgroIiIiIiIiIgroIiIiIiIiIqKALiIiIiIiIqKALiIiIiIiIiIK6CIiIiIiIiIK6CIiIiIiIiKigC4iIiIiIiKigC4iIiIiIiIiCugiIiIiIiIiCugiIiIiIiIiooAuIiIiIiIiooAuIiIiIiIiIgroIiIiIiIiIgroIiIiIiIiIqKALiIiIiIiIqKALiIiIiIiIiIK6CIiIiIiIiIK6CIiIiIiIiKigC4iIiIiIiKigC4iIiIiIiIiCugiIiIiIiIiCugiIiIiIiIiooAuIiIiIiIiooAuIiIiIiIiIgroIiIiIiIiIgroIiIiIiIiIqKALiIiIiIiIqKALiIiIiIiIiIK6CIiIiIiIiIK6CIiIiIiIiKigC4iIiIiIiKigC4iIiIiIiIidSysIpD9kbUW13Wx1m6vzOEwxhgVjoiIiIiIKKCLVCdwjxo1ijFjxrB69Wpyc3MpKysjFotRUlJiYrFYRSA31lqstXieZyoHdMdxrOM4Ff+M4zg2KSmJ9PR0m5SURHJyMk2bNqVFixb06dOHG2+8kYqvFxERERER2df+K+CI1LZEIkEsFqO8vJx+/fqxbNkyU1JSYjzPCwEhIAIkWWuTgWQgBUgHGgR/pgSvEJAafD2AC5QCHlAevEqAouDPciAKlBtjYkAcSDiO46WkpHitW7e2X3zxBQ0aNCASiZCUlKSLJSIiIiIiCujy01BUVMSIESMYP348K1asoKioyJSVlTmu6yYFYfug4NUEaBm8DgIaB3/XGGgYBPFQpZcJXj+e/vYq/ekFod0NgnkBkBu88oCtwCZgPZAT/H0OUOg4Tiw5Odlt0KCBbd26NSeffDJ/+ctfaNasmS6qiIiIiIgooEv9Z62loKCAAQMGsHDhQpOXl+dYayPW2owgcLcCugGHB//cOgjh6UEIT6kUwKn0Z439iJX+9ILgXhq8CoKwvg5YBcwDVgO5xphCIJaWluZ26dLFjh8/nszMTEKhkC66iIiIiIgooEv98N133/HAAw8wY8YMcnJynFgsFrbWNg4CeAfgyODVCTgYyMBfll55JrxejC9UCu7xILTnAsuBH4DFwBJgrTFmazgcjjZq1Mjr3Lkzt956K2effbYqg4iIiIiIKKBL3YrH4yxevJjTTjvN5OXlhay1qdbapsBRQB/8WfL2lQJ5Uj0K4nsT3BP4z7Hn4s+qLwBmAN8BG40xxWlpaYn+/fvbV199leTkZFUSERERERFRQJfa4Xke11xzDePGjSMnJyeUSCTSgUOAo4HjgGPxl643wJ8h/6luj145sK8DZgMz8ZfEL3McJz8zM9M95phj7GOPPUb37t1VeURERERERAFdqq+wsJATTzyRxYsXO67rplprWwK9gNOBHkAbIIsD98g+NwjrG/Fn1r8MXqscxylu1qxZYubMmbRu3VpntIuIiIiIiAK67Hko/9Of/sTEiRPNtm3bwsHy9e7AKcBpwBH4M+WVN3QTP6yX4c+sfw1MBmYZY9ampqZGe/fubZ9++mk6d+6skhIREREREQV02blEIsEZZ5zB1KlTK2bL2+LPlP8cfyn7wezfz5PXaXHiH+e2FPgcGAcscRynsH379u4PP/ygs9ZFREREREQBXf7bt99+y8CBA5kzZ46TSCSygK7AWcGrA/4xaI5Kaq9YoBx/Vv2LIKh/4zjOlubNmycGDRrEoEGDtPxdREREREQU0A9k8Xicbt26sWTJkpDneQ3xny2/CH8pexsgGc2W12iRA1uBb4F/A5OMMZsaN24cHzp0qL366qtVQiIiIiIiCuhyIJk/fz7XXHMNs2fPdhKJRBPgROA8/OXszfE3fFMwrz0uUAB8A3wITHIcZ02zZs3id9xxBzfddJNm1EVEREREFNDlp8zzPC6++GJGjx7tuK7bEP94tF8Dp1YK5lKHlwTIB+YC7wCfhEKhTa1atYovX76cSCSiEhIRERERUUCXn5qrr76ad955xxQXF2fgn1l+KfALoAX+ueWy74P6VOAtYHIoFNpy0kkneW+88QatWrVSCYmIiIiIKKDL/m7jxo10796drVu3plhrjwCuwF/Ofij+juxSf7jAFvzj2V4GZiYlJRVNmDDBnnrqqSodEREREREFdNkfJRIJjj/+eObNmxdyXbcVcC7wG/zj0lLQM+b1WRxYC4wC3jbGLGzZsmX0vffeo0+fPiodEREREREFdNlf3HnnnTzxxBOmtLS0AXAC8Ef8ndkb7yfB3OIv+654ucErEfzpBSF2R8JA6EevMP4xcRWv/WVwohSYD7wEfBQOhzeffvrp3vjx47WJnIiIiIiIArrUZ+vWrePiiy9m5syZYWvt4cDlwK+AdtTPDeAqgngC/6zwPGAb/vPY+fjLvbcG/1wMlARfFwPKgv/3v+oz/uqAFPwj4tLwz3BvCBwENA0GKRoGfzYKviZSj4O7F5TLeOBfwMxmzZqVvfLKK5x11lmq9CIiIiIiCuhS3yxcuJCePXua8vLyTKAvcD1wfBBQ60PwrAjj8SBo5wKbgYXAYmADsDEI5SVAFIgaY6LGmITjODYcDttIJEJycjLGmB3OInueRzQaJR6P47qu8TzPeJ4XstYmBaE9JQjlB+FvkNccOALoArQEmgAN8J/PD9Wj0B4Pyull4J1QKLTxvPPO80aNGqXZdBERERERBXSpD1zX5eSTT2bmzJkhz/PaA7/FnzlvEwTMfR3K4/gzwOuApUHIrHhtBoodx4k5juNFIhEvMzPTNmnShG7duvHSSy8RDof/K4xXNYxW1Gtr7X9e7733HsOHD2fTpk3k5+ebRCJhXNcNeZ4XsdZWhPYjgCOBjkAnoG3w90n4s+z7ujzz8WfTnzXGzGrdunX54sWLSUtL04dBREREREQBXfZlOG/RogU5OTlp1toTgZuAnwEZ7LuZXxd/+XkOsASYDswGVgBbjDHFycnJsRYtWtgrr7yS448/niOPPJJmzZqRkpJSpz9oeXk5+fn5ZGdn89VXX/HCCy+wefNmU1xcHLbWpgfB/BCgK3Ai/ix7c/xVCftydj0G/AD8A/gwOTk5d9CgQfbvf/+7PhQiIiIiIgroUteGDRvG3XffbcrLyw8GLgGuxZ/13RfPmnv4z4avxd/UbDowC1hijCkMhUKxjIwM27dvX/vuu+/iOE69XpbteR7XXHMNH3/8MQUFBU4ikQh7npcehPVe+BvvdQPaVwrr+6LMtwJvA/90HGdJ//793Y8++kgfDhERERERBXSpK3379mXKlClhz/MOB24ELsLfAK0uU6/Fn8nNDUL5hCCYZxtj8rKyshKdOnWyTz75JN27dycpaf88ct11XZYvX87YsWMZOnQoubm5Yc/zMoHWQE+gH9Abf2Y9hbpfBl8KfAk8aoyZ2qZNm7JFixZpybuIiIiIiAK61Kb8/Hx69+7N8uXLk4Ml7YOA0/A3PavLYF6C/zz5V8BnwGzHcXJTUlLiHTt2tF999RXp6ek/yWtQXl5Ov379mDdvnikpKQkFYf0o/I35TsNfDt+Qup1VT+BvtjcCeL9Bgwb5H3zwgT3jjDP0oRERERERUUCXmrZt2zY6derE1q1bM4HzgP/DfyY6Ukc/gou/Qdl3wGjgC2BlcnJyydFHH+29/PLLdOzYkVAodMBck82bN/PKK6/w4IMPmuLi4hRrbSvguOD69AEOxt9cri54+LvgvwQ8Fw6HN3z22Wfez372M314REREREQU0KWmjB07lksuucSUlpYeDFyJf4RaW+pmObWL/6zzNOBjYLLjOBtTUlLiZ511ln3//fd1zBdw77338tRTT5nCwsKQ67oN8Y+4G4A/q962joK6BQqAUcCT4XB40S9+8Qt39OjRukYiIiIiIgroUl1TpkzhjDPOcBKJRFv8XdqvwN9dvLYTl4u/E/tXwDvANMdxtrRp0yYxatQoevbsqdD343RsLZs2beLXv/41X3/9tZNIJBoCRwMXAP3xn1uvi6Behv/owUOO43x71llnxceOHavrJSIiIiKigC57G/Zuv/12HnvsMcfzvCOBW4ELgQa1/K09YBvwNfAe8Hk4HM5p2rRp4vvvv+eggw7SxamC0tJS+vTpw8KFCx3XdTOstb3wd9vvFwT12t5tPwbMAP5ujPmiS5cu0blz5x5QjyCIiIiIiCigS40YMGAA48aNC7uu2w24EziL2t0MzgLFwBzgVeBTx3E2dunSJTFhwgSaNWumGdi9EI1Gueyyyxg7dqwTj8cb4T+j/lv8pe9NqN3HFBLA98DfjDGftG/fvnTZsmW6jiIiIiIiCuhSpZRsLWeeeSaTJ08Oe57XG7gbOBVIrsVvG8Pflf0d4D3HcbIbN24c//7772nRooUuSg0oLS2ld+/eLFq0KOR53kH4S94vDwJ7GrX3yIIHLAEeAj5s27Zt8YoVKwiHw7ooIiIiIiIK6LIr/fv355NPPol4nncicA9wIrW3U7uHvwHcWOAlY8zcrKys0k8++cT27t1bM621IC8vjxNOOIElS5YkWWvbA5cGQf2QWr7O2UFIf7dt27bFq1at0vUVEREREVFAlx2x1tKvXz8+//zziOd5JwH34R/VVVtTneXAbOBFYEwkEsnp06ePN2XKFF2MOnDvvffyyCOPmPLy8nRr7UnA1cDpQBa1M5vuASuBvwPvtmnTpjg7O1sz6SIiIiIiCujyY+eeey7jxo2rCOf34x/TVRvpyQO2AO8DLxhjFh1xxBHROXPmkJ6ergtRh1zX5ZRTTmHmzJkh13Vb428i93vg8Fq89v8J6e3bty9evny5ZtJFREREROoJR0Ww71100UWMHz8+7Hnecfgz57UVzmP4m8ANAe6NRCLfXX311dElS5YonO8DoVCIqVOnMnLkSLdJkyZrjDHPADcD4/A37KuNz/uhwF+Bi1euXJl25JFH4rquLoaIiIiISD2gGfR97KOPPuL8888PeZ7XE/gb8DNq/llkCxQC44GnjDFz27dvX75gwQJSUlJ0EeoB13U5++yzmTRpUth13UOAPwC/AVpQ8wNpHv6mgPcaY0afeuqp5Z9//rkugoiIiIjIPqYZ9H3o3Xff5cILL3Q8z+sM3AWcUgvh3APWAE8Afw6HwzPPOeec8uXLlyuc1yOhUIgJEyZwzz33JFJTU1cAj+AfrzcXiNfC574D8Bdr7RlffPFFUv/+/dFgnYiIiIjIvqUZ9H1k6dKldOnSxcTj8cPwnzk/H6jpxBwHFgCPAWMaNGhQsHbtWpuVlaULUI8lEgm6dOnC0qVLU6y1xwG3An3xj2OrSS7wDfDnUCg07YUXXkj87ne/0wUQEREREVFAP3Dk5ORwxBFHmPz8/Bb4zwP/Fsio4W9TBkwBhhljprZt2za6aNEiUlNTdQH2A67rcuaZZzJlypSQ53kdgJvwN5FrRM3u8p4AJgUh/fvRo0d7/fv31wUQEREREdkHtMS9jpWVldG9e3fy8/MbAtcCv66FcF4EvAfc7jjOl08++WR05cqVCuf7kVAoxOeff84XX3zhpqSkLAYeAJ4CNuLvKVBTwsCpwB2u6x564YUXmlWrVukCiIiIiIgooP/0nX/++WzYsCENuBh/I7CGNfj2FsgBXgDuCYfDP1x//fWJG2+8UUdp7adOPvlk3nrrLduwYcONQUD/G7ACf2+BmpIM9Aeuj0ajB5100kl6Hl1EREREZB/QEvc6dNlll/Huu+9GrLU/Bx4GOlFzy5UtsBn4B/DPtLS0zXPnzrUdOnRQwf8ExONxDjvsMNatW5dhrR0A/AU4EgjV4LfZAgwFnu/atWvx999/r4IXEREREalDmkGvI/Pnz+f99993rLXd8Df96lDD4Xwt/vPmIxo1arT5zTffVDj/CYlEIqxZs4aOHTsWG2M+YPsO7zV5iHlT4DrgzAULFkTuuOMOFbyIiIiISB3SDHodsNbSuHFjk5+f3xp/ifIl+MuKa0LFMWqPGmNea9asWcGCBQto0qSJCv4nWpd69erFnDlzkq21fYH7gGPwnyWvCS4wHbg5HA7PKy8v90KhkApeRERERKQOaAa9DgJVhw4dyM/PzwSuAgbUYDi3wErgb8aYV9q0aVOwYcMGhfOfMGMM3377LSeccELUGDMJfyb9W2puJj0E9AJuSSQSrZo0aWLi8bgKXkREREREAX3/99xzz7FixYoIcCbwOyCzBsP5OuAxY8w77dq1K1q5cqU2gztAfP3115xyyikxY8wU/Fn0mlzungycA/y6oKAgvW/fvipwEREREREF9P3b0qVLuemmm4y1tgv+OdbtqJnnzi2wARhujHm9Xbt2RdnZ2TiOLueB5IsvvuDEE0+MGWM+B+4BvqfmdndvCFwNnDZt2rTwiy++qAIXEREREallega9FrVq1YoNGzY0A+4HrgRSauittwBPGGOebdGiRd7atWsVzg9gffr0YebMmSnW2nPxz0s/gpoZfHOBScAtSUlJizdu3GgbN26sAhcRERERqSVKdbXk+uuvZ+PGjSnAecGrpsJ5PvAv4PkmTZrkjRkzRuH8ADd9+nSOPvrocmPMWOAR/E0Da2LkLQScCPw2Fotlnn/++SpsEREREZFapBn0WuB5HikpKU48Hu+Ffy55N2pmMKQUeAN4oEGDButWrlxptSGcgL8ZYfv27Vm1alUW8Cf8o/wOqqG3XwMMdhzn34MGDUoMGzZMBS4iIiIiUgs09VoL4bxVq1bE4/GmwDXAUTVUzjHgE+CxpKSkda+//rrCufyHMYbs7GyaNm1aALwIvAIU1dDbtwL+6Hne4SNHjjSxWEwFLiIiIiKigF7/PfXUU2zevDkJ+AXQn5o5Us3FP0pruOM4yz788EM7YMAAFbb8T0ifNWsW6enpOcBIYCwQrYG3DgF9gMtKS0vTzzjjDBW2iIiIiEht9Om1xL3meJ5HZmamKSkp6RIEpBOo/iCIBZYDfzbGjLn88stjr732mgpbduqpp55i8ODBTiKR6AkMx3+OPFRD9XBgOByeNG3aNK9Xr14qbBEREZFaNmjQID777DOi0V3Pu4TDYY499lheeeUVFZoCugAcd9xxfPPNN5nAncANQFoNvO1W4CFjzPM9e/YsnjVrlgpadmv48OHccccdSZ7nnY2/cdzhVP+IvzjwPnBr8+bN12/cuFEFLSIiIlKL4vE4KSkpIc/zmuBvOr2r/lzMGJNTXl4eT0pKUuEpoB/Ypk2bximnnBJyXfd04OkaCkTlwKvAPY0aNdq0YcMGUlJSVNiyW57n0bVrVxYtWpRhrR0I3AE0qoG33oK/muON++67LzZkyBAVtoiIiEgtKS8vJzU1tQnwZ6D3bvLFcuCesrKytcoMCugHvMMOO4zs7OxmwKPAJUCkmm/pAlOAW5KTkxeUlJTYUCikgpYqs9bSvHlztmzZ0hJ4EPg11d8TwQO+Aq5t1KjR0tzcXGuMUWGLiIiI1F5Ab4F/zPJZ7PzxWQt8B1xSVla2TAF9/xVWEVTfpEmTWLVqVRjoB5xZA+HcAquAEcaYxddff73CuewxYwzjxo2jT58+m+Lx+LPAkfgjr9XZF8EBegIX5efnP37hhReWfvDBBypsERHZpYkTJ/LWW29RVFREUVERnucBEIlEyMrK4rjjjuPmm29Gg74ie9/1+9Gfsr9eSM2gV1/Tpk1NTk7OocAzQUCvbpouAp4Ahnfu3LlwwYIFKmTZa1dccQVvvvlmkrX2cuDvQPNqvqUF5gF/jEQiszdt2mQbN26sghYROUBZaykrKyMej3PllVfy7bffkpeXZ+LxuON5nmOtDeEP8IaC8BD60T3Fw1856BljPMANhUJeSkqKbdWqle3UqRMvv/wykUiE1NRUhXg5oOzBDDpB/+zSsrKypZpB339pBr2a7r77bnJzc5OCD8xxNRDOXeBL4JXMzMyi+fPnq5ClWl5//XXmzp0bW7hw4UfAscBVQGo13tIAnYALEonE4uuvv7747bffVkHXEc96tHvkRlNqvYqO7i6FMIk7u5xkbz7n1yo8Eakxzz33HCNHjmTt2rWmpKTExOPxsLU2BWgCNMPf96QRcFDwdw3xN7gKA0mV2q8E/iakUaDEWpsH5HielxePxwsWL168bfHixVsaNmxYYIyJRiKRREpKim3atKk95ZRTeOihh2jWrJkuiIj8ZGgGvRqstTRr1sxs3br1cPxRrZOo3rISC6wAbjHGTBg9enTi3HPPVUFLtS1dupTOnTs7iUSiB/4mhr2o/hGAi4E/JCcnTy8tLbWO46ig60A0HqP5ozdnAZcBHXbT5mwD3kw3zsp1dzyjxl5EqqWsrIzTTjuN7777zolGo0nW2kz8VVmH4w8AHw60Ag4G0oNAHgleFYOKZif9H/Bn0isCewx/s9xiYDOwEcjGnyHMBjYZYwqMMeWNGzd2f/WrX9lhw4aRnJysCyU/KZpBP/BoBr0a3n33XXJycpKAc4BuVP+Zj1LgPeDro48+WuFcakyHDh245pprvGeffXa+tfaloBPVpJpvewhwcTQaXXDqqacWfvnllyroOhAMqqYD5wF9d3OjXg1MTmBXquREZG/E43HOPvtsZsyYYUpKSsLW2oOBo4JA3hPoDLTAX5lVsZR9b/tDoSDM/3iVV0e2L4MvB3KA5dbaH6y13+Xk5PwwYsSIlc8880xBRkaG26lTJztixAh69+6tCygiCugHkuuuu85Yaw8Fzgcyqvl2HjAbeC0rK6twzpw5KmCpUSNHjmT8+PHRVatWjQZOpvqnDSTjb4w4asaMGdO3bdvm6Vn0OmMqdWSd3bTxjqbORWRPJRIJBgwYwKeffuokEokM4DDgjODVCX/pegrVX421J21eCH95fCZwKHAa/gz7JmCh53lfFBYWTps1a9aqPn36FLZo0SKxbNkyUlNTdUFFZL+hNal76R//+Af5+fkR4HTg6BooyxzgJWPMiquuukrLhaVWvP/++4RCoa3AK/gnBVQnuxmgPdA/kUik3nbbbSrg+hnkRUSqLB6Pc8wxx5CRkeGMHz++YSKROB24D3gVuDcI6G2BtH3cjzT4g5SNggGDXwJDgTettY96nver9evXt8/IyAhpnxQRUUA/AAwdOhRrbUvgAqBBde+HwOfAhBYtWsQef/xxFbDUih49enDssce6wEzg3/hLBasjGTjXWtth1KhR2tNCRGQ/9vjjj5OZmWnmzZuXGY1GTwEeBp4FrgO61INQvquwHsJ//KcjcAXwKHCztTZDx4GKiAL6T9z8+fNZt25dGP/5z2NqoBzXA6+Gw+HN48aNUwFLrZo+fTppaWlFwJvAQmpmFv3cwsLCFM1SiIjsfxYuXEjnzp0ZPHhwpLy8vCvwZ+A54HdBG7+/7bwWxl9+nw2Un3baabrIIqKA/lN23nnn4XleM2AA/nNQ1REFRgPTu3Xr5nXr1k0FLLXKGMPtt99ujTGLgbfxn9+rjhT8Z9Hb3XDDDVpSXb9oSYOI7NLcuXPp0aOHWbhwYWNr7SXAM8DNwBH4z3vvr23fMmBKenp67LrrrtOFFhEF9J+qlStXsmbNmhD+zHlPqnfuecWxau+Hw+HCSZMmqYClTtx5552kpaVFgbHAXPxNCqvTjhwFnJiXlxd+//33VcD1hwZMRGTHHRBrOfXUU+nVq1coGo12BP4KPAKcgL+Uvbrth8XfdT0OlOEPBhcAeZVe+UBh8N/Kg691qf7gYhSYDCy/+eabNVApIvsV7eK+h+6++25c103HP4ewWQ3cQMYB80444QQvKytLBSx188EPhxk8eLB94IEHsq21H+AfE1idCpgFnG2t/ejhhx/eeuGFF6qQRUTqcTjv27cvX375ZZK19jjgNvwd0atzIo0b9GsKga3AFvzNSFcE/16Ef5xsvNL/Y/CXz6fir0g8GH9JfTv8o0AbB39fcZ56VQcNNgIfpaamltx///264CKigP5TvqGNHTsW/DOkz6B6R1SB/2zUqNTU1OLJkyergKVO3XfffTz33HPRzZs3j8Hf/fZn7P2MiYO/oqR9dnZ2DlpaLSJSLyUSCbp27cqSJUtSrbVnAXcE7ffe9Gk8oCQI4t8D3wGLgOVAjjGm1BiTMMZ4juNYwDqOY0Mhf/Gh67oAxnVdY601nuc5QMRamxoE9NZBn6sD/kqtw/jvM9d3+Cvib7w7/4QTTtCpOCKigP5TFo/Hyc/PT8J/3rZNNd8uCnwM/HDZZZfpBiL7xB133MGtt966zvO8D4EeVG9PhSzg8OLi4lme56lOi4jUM9ZaevToURHOzwXuCoLvnj6uF8OfFZ8FjAG+BdYZY4rS0tLizZo1sxdccAGDBw8mKyuLpKQkjDHs6L5gfVhricVi5OXlxR5//PGSMWPG5GzdunVpfn7+FNd1k4N7TBugM3BKcM9qjX+STuX+7BZgjOM4hToVR0QU0H/iOnXqhLW2Gf5MY2p17pH4o83jwuFw6YgRI1S4sk/ceOON3H333bHi4uJJwGXA8ez9LHoYyHRdF8/zUEAXEalf4bx79+4sWLAg1Vo7ABgCHMme7UfbKgtsAAAgAElEQVSUANYBnwIfAd84jrMtNTXV7datm500aRIpKSl79HMZYzDGv+2kpqaSmprKsGHDGDZsWEV+T7z99tuJe+65p2Tt2rUb4/H4bM/z3rPWHoI/838K0Bs4FH9Tu9nAt+3atXO7du2qCy8i+x31oKsoNzeXNWvWOPjngHapZtklgCnA97169fLS09NVwLJPhMNhBg0aZI0x2cAE/I189pYLlDqO85/OloiI1A8PPfQQ8+fPT7LWnoG/IdyehHMLbAP+DVwP/CUSiYw7+eSTtxQUFCSKi4vt1KlT9zicVzXA/+pXv2Lp0qWUlZXZkpKSxO23317UsmXL+aFQ6HVjzK3Ab/FXA4wDPjDGbF6yZIkuuogooP+UPfzww3iel4I/UntwNd9uK/BRJBIp/Oqrr1S4sk/de++9ZGRklOPv6L66Gm9VDKxKS0v7z/OFIiKy773xxhsMGTLEsdYei3/Geec96AMmgAXAA8D/hUKhiZ06dcqdO3eu9+WXX5KRkVGnv0tycjJDhw5l/fr1fPfdd4njjjtuW2pq6hzHcZ4BrgFGtW7dOh6JRHThRWS/pCXuVfTBBx9ULG8/leptDucB04FZRx55pKcgI/uaMYbzzjvPvv7660vxly0evhd13AI/AMtatWqlDeJEROqJnJwcrr76auN5XntgMHAsVX/mvBR/xd+jxpjpLVq0KM3OziY5Oble/G6dO3dm+vTpALakpCS2Zs2aLWlpabRs2VIXXkT2W5pBr0qi9jzWrl3r4G9IcjjVOxu0ABhvjMnT5iVSX9x5551EIpFi/I0LV7Hnu7DnAR8aY3Kuu+46FaiISD0xYMAAysvLM4HfA2fiP6ddFYXA28BtjuN80bdv39I1a9bUm3D+Y+np6Rx55JG0a9cOzZ6LiAL6T9wTTzxBLBZLxV/eXp1dri2wDJielZWV6Nu3rwpX6oVOnTrRpUsXD/gm6JAV7sH/Xg58Aoxr3LhxfODAgSpQEZF64LHHHmPGjBkR4OfAFfg7nldFEfAm8GA4HF40adIk97PPPkOr/kREFNDrhWCmuwX+DHp1hmXjwFRgzd13361lwFKvzJ49m8zMzCLgn8Br+BsC7a6elgLjgWGhUGjdM888o3otIlIPxGIxhgwZYqy1hwFXA1Vd910chPOHk5KSVj3zzDPeqaeeqgIVEakjegZ9d+mjtJSNGzc6QCegPdVb3r4NmJScnFxy8803q3ClXjHG8M0339ijjz56fSwW+zuwEvgNcBj+sYIVUyceEAU2AqOB5x3HWfb22297F110kQpSRKQeuOGGGygrK0sDLgSOo2rPnUfxzzUfHolEVs+cOdN2795dhSkiooBef7z44ot4npcEdAeaVOOtLDAfmNu1a1erM6KlPurYsSOvvfaaHThw4Kbc3Nx/WGsn4z/acQzQFH+AqgBYCHwNzE5KSiq69dZbrcK5VPhoxmQ+XDCdBQVbyXHjRK0HYDz+d0mG2f6yycbh4HASPRu14KkrBxHez5fTjp7xOa/M+YIfSvIo8lxjAddiPKyxPyoDB2NDxi+eVOPYdslpnNmmE38+/yocHVtYb6/vy3O+YHFJPkWeixtcV9di7A6usQEbMsZW/HOaCdEiksyZbTpy14V/wDE11y/wPI/XXnvNWGu7AJcBVdlqveIxp0fD4XD2sGHDFM5r2Pr167nllluYOXMmBQUFJpFIEI/HHWu31xZjjA2FQoTDYes4Dg0aNLAdOnTg8ccfp1u3bjX2czz66KPMmjWLdevWUVBQgOu6xlqL53n86Oehos+alJRkmzRpQocOHTj55JO59dZb2Z/7s9999x2DBw9m0aJFlJSUGNd1icfjxnXd/2p0HcexkUjEOo5DSkqKbdu2Leeeey5Dhgzhp9Cfr6gPU6ZMYePGjRQXF5uKdqRyXag4RtcYY9PS0mjRogW9e/fm6aefJhxWpKxJpnLBy/8688wz+eyzzw4GXgTOZu9n0MuBB4wxjz355JPlN954owpX6i1rLUOGDGHkyJEmPz8/AqRZa1OC+h81xpSmpqZGL7zwQvvSSy/pucQ6VB6L0uKxW1oFbdIZ7PpRpdXAb5KM+XrzHSNrrbEvi5bz5Li3eXH5bLa5CcfzHwVKspCGv29HBv4qjBT8geGKdtTiH+EUxX9cogTIN1BqIZaEiR+WlGY/vf4B0lJSqemYujkvh5Oev48Cz3W8nTzNYTBkOY439Zp7adbooCpdn4v+eT/fluSZmLURINVCQ6ARkBW8GgHpwbVzg0GvAvznfouB/KAcyhyINg8leZ/9YQgHN2xc451Bay1dh9/MFjex0zKoXBYZjuNl3zYCs48GDZ4c8yaP/TDVlFpr7G5+3hDGHp6cZqf+3/Aa+d6u6zL849d4edkctrpxx/PreHKl69qA7XU+K/hnE9TzkuD6FgBlwb8XAoXG//d4BBNvFo7Yyw87hlvO+TXJkaS9/llPP/10Pv/880zgXuC64LO3y6qAv0HorY7jfPzYY4/FD8SVftZaWrZsSV5enrOz/rExhkaNGnkbNmyo8udg2LBhPPXUU2zYsCFsrU211jbGH/Su+DMraA/iFfWicntgjNmakpJSvGzZMtuqVas9/r2i0Sjbtm2jX79+rFixwpSXl4fxNwtMsdY2qFR3U/Db71CleuEBscr11hhTZIyJOo4Ta9WqlTd58mTatm1bK32B448/nvnz55tEIrHTwk5JSbHnnXeeffXVV3f7frm5uZx22mksWbLEicfjFf2bRkG7XPHZbRzcswjuT3mV2uh8Y8w2oMRxnGjLli3dKVOm0K5du1oL6+Xl5aSmprYA/gWctZv7/jzg0rKysqUpKTv/2CcSCYYPH86jjz5qtm3bFrLWJltr04NyqKgPST+qC25QHiX/uV8bUwrEUlNT4507d7aTJ08mLS1tn90jFNAPEAcddBC5ubk9gPfwl7jvrdXAH8Lh8OSysjJPI02yv1i4cCF33303y5Ytw3VdDjnkEB555BGOOuooFc4BGtBdz+P3/3qIqXmbKPBcx8WGgxDaJmgnDwfaAa2A5vj/rXLnr3JAj1cK6PnAhuDnXoa/UmOpgc1hTOyolAw7ceDfSKqhHZp/9dz9fJK3MR04KfgZd6QI+LpPeqPCcTf+fafl8Zvn/8aU/E2mzHph63fuOuGvPOkclEfL4HtUPC5iKoW3io5PWfD9tgRlsBR/5dUCYG0IylqHk72nzrqCU7oeWyNlEEvEaTb8pmT8o7dasetB6CJgWvtISv7swfvmFJJDH7mBfM9tir9kO30XX+oB2Qbmbb51hBupxj33rnf+wZurf6DQcx3X/55tg+t7FP4jQO2AZpVCeYT/Whzyn2tcUd/LguCVE9T3tfiPFC0L/tzoQEnYGLd5KGKHHN+fi07qV+WfNx6Pk5GRYWKx2PHAC8CR7H5yoQQYAQzt2LFjwcKFCzkQV/p169aN77//viFwAjvfUK8QmN6pU6f8RYsW7bwCeh7XXnstb7/9tikpKUmy1h4C9AaOB7oE7WWjIATtqj3YBLxijHn1iSeeiN50001V+l0ef/xxnn/+eVatWmWi0WjI87y0oB06NKi3hwY/Qwv8FaIZQRudtIOAHg1+nsKgfVoLrAAWBa814XC4tG3btt69997Lb37zmxq5HvF4nJSUlJDned2De8uOKmUcmJeUlLSyvLzc7iwYXnTRRUycONEUFxdHrLUHB5/fijb6sOBelYU/6BbaQXsSC65HTtA+Lwa+D16rI5FIWYcOHbyRI0dyyimn1NuA/pe//IUXX3yR3NzckOu6mcH9qWulcmgTDFCkBWXhVKqbiUoBfcf3a2M2JyUlxbp06WK//vprdjVIIDunlLirTqjrkp+f7wA9gYOq8VZeUHmXHXbYYQrnsl856qijGDVqlApCyCsq4PR/3sOaeNTx/JnhpkDHoDPbCzgE/+8qj7zv6TB6j6ATUB50AFZYmBzHTviuvGhxq0dvKjqrcUvvtWvuqvYI/erSAoKO6V1BZ21Hb7ge+O0PZQVzdvQew0e/ymOLZ5hya1OsH9T64q+2Oiooi1SqfuZ0A+DgoJN0XKUO4WpgmgtjVieic88f+6+84774wB17w9+qXQae51V83z8GP/euftblwO+3ufH8fVUHy6xngg7lg0FQ3pkE8IqFhZ71yvbme23atpXjX7iPQs9Nsn7nvRfwi6COtgrKLWkPrm+FisGgI37U6S0KOrwrPJgas3bWmkRs5TVff5g38Ot/x85o1Ny+/Ie/srvBhiFDhhCPx1Pxd24/tAqfQQ+YA7yamZlZeKCGc4CtW7cCtMZfeXD4Dr7EBp+DP23atGkeO9lINZFI0KZNGzZv3pwcbNI3IHh1wJ+lDVfhulS0B23xT0qhefPmu+23zp49m379+pnCwsKItbZhUAeODQYiOwRBNDOouxH2bmWoG7RPxcA6YFYikRiTnZ09+3e/+92WoUOHJr7//vtqz6h7nlfxmOllwG93kluiwAOu6z4/derU+EknnfRf/3HVqlX06NHD5OXlpQYhv1/w2egUtP/JVfwMV8wutw2CfUX7vAb4Oh6Pf/TDDz98d9ppp+WdccYZ7ieffLIvZpErBlT+p15u2rSJY445hs2bNydZa1sCJwLn4D/C2/xHg4t7f7+2dko0Gp0we/bsRZmZmYW/+MUvvH//+9+aUVdArzmrV6/Gdd1U4Gi2L3XZq0HA4Oa39b333lPBish+5YZXhvPvTSsps17Y8wcrewAn488EHYU/6xChZk4GMcF7RYIOaqvg+/wKGJ+Ad8du2zDv8GE3lr9/wUC6H37k3nf+/C6ME3RWG+/iSzuWeXautfY/szPrtm7i3FeHsjoejVi/0/fLoAPele3L16vDwZ/NSsEv827A+cAkD96eXpI3reUjA4uHH9ffXn5q/5oo84ygDHb1c2cB4X257s5u77tUPCqwq4CeDhj28AeOJ+L0fvI21sSjIc8Pa2cF17dXEK73ZuCpKvU9I+godw86zlvwZ8Omx7DTxuVt/KH58BsLOySnudNuGb7TDu9rr72GtbZNMOBSlemrPOA1Y8yKq6+++oDeIydYVbq7+nUw0KC8vHyH//Hmm2/m2WefNbFYrBlwHv5mq93Z/sjDHo9LBQOFiQsuuGCHXzB27FgGDx5Mdna2E4/HM9g+cHpSECZb8N+zodUVCvrFqUH71CVo/6Z6nvfOwoULP8/IyNh27bXX2ieeeKImPiMV4Ti8k8GCwzzPS5owYcJ/AnoikaBnz54sWLAg7HneocAF+BsmHhX83E41f6bk4NUk+P1/CUzyPO+tiRMnzsjMzCx+5pln7JVXXlnX1bg8aP/89iwep2fPnixatCiUSCRaB4MTFwTtWWY168Su7tcT4/H4qI8//nhWkyZNSv/xj39w6aWXqkOlgF59F198MWxfqlidYcAiYEZycnK0S5cuKlgR2S9s2raV456/jyLrJlt/2dvPgg7nMUGnLLkGg8rugmon/Bn604AXtnnuO/1Gjcj96vLbbMc2h9bm908FOiSw4YSbiEfCEVZtWs8Jr/zNlFmbFYS3a/FXWjWopfKo6AS1AS7Hn/l4o9zaV26eMWbNjNWLvRG/HXygVc9aqXee59Hu0ZtNmbUZ+BtkXhsEnUbUzdG0JuhvpAX1vS3+oywbgW88+MeyaOmMucsXuT2O+N/HjBKJBJs2bQoHn9UjqlBOLv7GcJ81adIk9uijj6rh270UIDMWixl+NFN58sknM23atLDneUcBNwHnBm1ldepOMbDRcRz74xWY1lp69erF3Llzw57nNQ7a5guCYN46GPRx6qDORoLBpV8GAe3D8vLyZ0eMGLFk0aJFiQkTJtT2PaKNtTZ50aJFJRXl0rJlS3JyctKttacCN7D9sQVTC79/UvBZvSIo+7eKi4tf+f3vf7/6/fffd0ePHl2X9dOtqJee59G8eXPy8vIyrLUnAn/CH1yvrfas4n7dgWBFmbX21by8vDcuv/zyDQcddJB3+umnqwWpYkHKTixZssTgjzq2rWZZrQfmH3zwwZ6WeIjI/sD1PLr+825TaN1DrL/8+Z/AcPxZudbBTbiuG7QU/Jnku4Hb49i2J78xzHw+b2Ztfs8w0MpCiudZnvvkPY59+UFTZm1bYDAwLAhymXVUHhH8pbeDgAddOPrNjctDt73xlCptNX27dAEth91gyqxtDgwEnsBf0t5kH/aXnCBkHREMBrX3wHj+yQj/o2/fvnie1xB/IKsqO7cXAR8bY9aNHDlSlaDq7VCWtdb8OJxPnTo12fO8U4FH8QfTDq6BulMM5GRkZPzPWpDDDjuM2bNnZ3qedw7wGP6eA1fh7zuQuQ/qbQh/FvUPwDDP8/p8+umnkauuuqq2v287IHXDhg3k5uaSlZVltm7d2sRa+/vgWpxZR2105fZ5mOu6fT7++OPIz372s7q8Bh7g/etf/yIzM9Ns27atubX2WuBJ/JU5ddWeJQf18M/Ag67rdunXr1/ozjvvVAuigL73SkpKKCsrc/Cf3WlSzQ/KXGPMVo0aicj+E9BdXL+z1Q/4K/6MXMXy3n3JBJ3ePwK3xbEtLp/wiikuK63N+2Q7IPO3Lz7EX+d97rh+WLoHuDEYrAjtgzLIxF+u+YAHXV9au8h57OPXVXH3krWWsz8YaaL+0vA7gFvx9wKoLysNPWAJMCvNOO6xHXa8Gm/u3Lkm6LccXYU+nsXfiPCz5s2bx4NVg1K14NEYMCUlJQD06NGDqVOnplhrfw4MBU6lao8XUIVrlAfkt2vX7n8Cen5+vsGfRLoNuCRoj/b2ufKalIq/8uNv1trer776amj48OG19b0q7glNsrOzad++vSkqKjo4aJ//ij+bW5dtdMUjQ+cAj1hr+3311VcpPXr0qJOmjGCJ++DBg01JSUlF3fhzUA513Z6ZoN9wKfCA53lHDx061Jk0aZJakd3QEvedePvtt7HWhvGf42lQjbcqB74zxpTp5lc9c5Yv5I5xr5JdXlyxUdB/1pYFdyKbZkIclpLBQ2f/hh6Ha5fxGu8hWo8h7zzHhPVL2ZqIEcX+15oQC0QwtnEoTPesg3nwvN/T5uAWKrj9UCQUJtkYt9zaBfg7tlZ3QNfu5ia+p7Lwn3PbUG7tiAuev79o4k1DayugtwSafJa/aaPnh7Y7g3CcXgPlUJ2OdAr+zFCpC399eOG07Ov6XWRTk7Vr7p6IxmMc+tgtJo5tjj/zdVUwAFIf6nnlvsSnwOr7e565w+/xzTffUFpaGsZ/3rl1Fb5fDJhojFlfU7tuHyjNI/4S4dCnn36a+PDDD5k3b16StfZ0/IG7o2swEFr8jQMLXn/9fwfgOnbsaGfMmLEFf6O24+pZGx3BX+5+h+d5tw0ZMmTpwIEDbWpqam1ck3SgTV5e3vxYLNYYuB5/FUzjPfzZbQ1+bpPwd+1/wFpr5s2bN/GSSy6Jvfvuu7VdP0uARDQabQ3cjr/sPrMG6kN171VnATHP8/46YMCA5YsWLbJt27ZVa6KAvmeC0Z1Uqj/ilAcsDofDibPPPlsFu4e2FeZzxvP3sjYedRJ+Y5eGPxqXFVyf5KARiQGlZTZRkFuan3/6qBGlEUysbSTZTrzmHhpnNlRh7m0o9zxWbV7Pma89TL7nhj2/zDPYflZmxS7VLlAexRYXJ2L5a3PXFX384v1lGcZxrzviWHv7L68k5Oi89P2FMYY+DQ6ykwu3LgK+wn8etqoXsPLxaRVnPxfhb3YUxZ8NrDiHt0FQlxoFn++q7G5coRH+Usr5s0sLxiXchBsO1cptrSHQzPWP17kF/xnP9CqUQYztR9IU4h8lFws+K7B9o6UGQQeq8rE2VZWMvwx7aczaYWeOvKvw6/8brgq8B/o9cydl/vm/V+xhZ7ainpcH1zc/uNZlwd+7bH8+NSmoMxXXuuL+VZX6bvF3ih6bakz5Vaeft8Mveumll7DWpuLv2F2VwaMtwNeO45Tfddddqgh70DwGbU94zJgx0TfeeCNkre2FfxpEVcN5xVFqbtAeVnCC/79iI0IXf/+B0g4dOvzPm3z11VckJydv8zxvIv5qp4Z7UHcrzrQuC+puYVB/o/ibjFXU3Yp+V+Og/u7J3iMR/JMtriwvL3+4b9++hdOnT6+Na5ICtIvH45n4m/L9sQrh3Kv0+S0Kfv+yoI22bN8IrqK/k07Vd3ynUht/NDDEWlv0/vvvfz1s2DD3tttuq626aYPfIy0og19XoT378XGnFfeqinpQ8XskB9c/KyiLPT3BIhl/g7rVZWVlf+/bt++25cuXqzVRQN8z2dnZWH+TmCPY+1EjGzSsq5o2beqpVKvuqhf+zoTcdabc2rD1z5c9Gn/zk6PYfpRTRQNBpU7wFvxzZBfGsXNWxMsXHD7yL1tTjRM/r9khjPzdbSrcKlq7dSMXvzacFbEyJ4FNxV82eQz+7MwR+BtWVZzrHGb7UUH5wAbrH0XzXZH15j6y9Jtljz7yTXHTUMSbdcNQMlLTVMD7gUGnnMeUMS8UeTAR6B987nbW1nlBR2cD/rGSi4I/VwftYH5FQDXgWr/OJAedh+b4q5WOBfoE9asqz7hXLO+8yoN5Rzx6y9rs20bUxnEuWfib1HXDX0aasZuOzhb8M2G/x/8crAE2B53A8koBPRx0pBqz/Wztnmw/9qaq9+gG+M+7Tl8cLZmwatN695DmrVSBq2D15vX8UF7s4M/0Xc2ud/Ov3LEvDOr4t/hn1a/EP6+6ILjGMRMEdOvfp5KDe9ZB+HvbtMFfjdER/xSA5mzfWfrHFTiB/xlc8rOGzXZ6zvOECROw1jYJ6pBThd9hObDk0EMP9Ro0aKDKsGcBvTEQfv31143ruofjz1T23E1gqVh+vAnIBlYF7UJx8N8q9htogt/vaREEw7XGmNiOrns4HKZ58+aJDRs2fIn/CETvXbSbFYE0N/j+i/AfcViJf675tuBniRpj4tZap1JAb8r2RydODNqohlUcTEzHPybti9mzZ09yXder7vFrOwl/7a215+AvbW+2k3KoGDjdGHxu5wf3qbXA1uD3jwVl5QTv2yj4vHbEP8HkWPzn7JP2IKQfA9zued6Wu+66a/Gf/vQnW0ufuYrz2s8FfrebAZt4cM0XBfeqpcG9qqIdiwZfU3GvSgnqfaugLI4JyqP1HpRFOnCxtXbaypUrP/roo48SAwYMUIuigL5nAT24YbaoRkD3gs5p7s9//nMVahVszA3OnbVuShDE++E/x3NU0DDsbnapQ9DBjwY3oQUWPiq13mdvb8peM/GRG2OzB/6drHR1Rnbeg7BM+HYqV372phPHZgah5Jf4zyC3CzoQu3rGrS3+UVOnB4Mm64HpLnywyY3Pavfk4G0nNzjI++D6+3G0aWK9dlKXnmSMfTFRaL1ZwU38x5vLeME13gDMBSYFN/p1QIED0VTjuA1DYdsqKY1XrhiE4ziEnBCu61JYVsKlbz2+eWsitrzYetOBUdYPLRcFHbqqbNAZxt+d98Qizx316dxpiX49TqzpokgDriR4znEnX1MOrADG459ZvNTANgPRFGPcBk7YphiH5kmpvHj5/wHw+zceZ2OslFLPI99LzEhs7wx2w39m7yyqvslUa+ByF2af8/ojmxfc+qQqcBX88rVhuP41vYKqnRleAswCXge+BjYYKEuvVM9fvmIQjnEIh0J41iPhejz96XuMWbuEYs9dVmxdE/MHn5ODwZ+W+Mc0nRIEn7bBoEsk+J4bgHEOlDx+8cCd/mC5ubkmuG+2rMLvkQg+q1v2wTFQP4mAbq2NRKPRhvireE6vdL121BfMD8p7HDAtCEKFQMwY4xljsNZirXWMMRFrbUVb0BjY0qBBg0QksuO3v/zyyxk+fPh6a+3EoO1I+VEgjeKv/qlYDTUtCOU5xpjylJSUePPmzW1WVhbvvfceDRo0IBQKYa3FdV2uuOIKlixZsmbz5s1z4/H42KBvfDrw+yCkpVSxfbokHo9/279//7xPPvmkNvLMOcHrkJ3U//JgUGpM0E4vM8YUhEKhaOPGjd2GDRuSlJTEgAEDGDhwICUlJVx66aXk5+ezefPm2WVlZUnWP7njKPxHnPoHwb0qWSqCvy/BNbFY7MHevXtvW7RoUW3VzW74O8k328nXxIIBic+CslgQ1IVoRkZGomHDhjYzM5PzzjuPgQP99uaZZ55h9OjRFBQUsHXrVicWi0WCsjgSuDgYEGjF7mfUTfB1V3ieN2Pw4MEbFNAV0KseUKylsLDQ4I9qp1fjrVxghTGmULuj7qagPJdfPH0ns0sLnODc2QFBB7Ube36mcMURNWlBQ3Ai8K2Ft3K9xJjDRty+5ReNW3mvXHOnAuKPFJeVcvSI28n33GTrl/2vgoa3DXu28UzFsSsVjyN0CMLGpx68OaUoZ0abR24oGXbc2fy6+mc4Sy167KRfcvVXH6wDJuOfm5oadO634M8eTg46fEsdKI4Y4zYNReyNXU/hj2dduMv3PrhRE2YPfhzALlm7MvHH90fmL4mWzIlauxz//Oc7qNqS0YOAs12YOHLGJ9tqIaCH8GcKzA4+Ax7+jMMHwJvA92FMWSMn5PVrdghP/eb/2Nm50p/c9NB/vc8/J4wqG/7dlLJcL7HJ88v2K/zZoC5VKINI0CnrsSkRm5C9ca3XvkUbVeBdJVTXZW0i6gR17ORdBKz/ZGDgNeB5A8tSjZPo26iFrcq95MFLr+PBSt0Mz9r43e88G/9w7aLiXC+xIW7tXA9GBW3tscHP0zsYFJ0JzGsbSfaaNz5ox79LIkFJSYkT3DOrskS/DJgbDofL//rXv6oy7LkmQd/kJPzVK+m7KOdvgbeATxzHWR+JROLNmze3Z511Fs888wyVj05bvHgxTz/9dNmcOXNYsWLF1sLCQhOJRLjrrrt2unLi/vvv5/HHHy//f/bOOzyqKv3jn3PvlDSSUIN0kCIgFmSlWLChiyuKWLGt/toOVcUAACAASURBVGwrgggItlVZxUqVpoKLFbvgyiqCKAhYaYKA9F5CCullyr3n98e5syBCZkgykwDn+zx5EniSmTPnvuc9b/2+wWDwW1RJcwvHMS9EVfIsBL4DVhiGsd/tdgdq1apl9+jRg2nTphEumz1v3ryQbWyPHTu25KWXXtqakZHxtpRyBYqzobdjb4XTT+cAbRYsWPCzZVmykrPohmNncBgdLZ37agbwthDiN5fLVdykSRM5bNgw7rnnniO+6PLly//3GlOnTvWNHj06Y8uWLVmBQGA5qqrlXtTEhEjKAhMcu3bJ+vXrP5k+fXrg5ptvjoZf14nDV+JIVMb8v44eW+LxeApr1qxp33HHHTz77LNHvKueffZZnn322f/dVQsWLPDdd999GVu2bMny+/2rgAWo9q+zI9CjpqPfzt+2bdvHlmVZUaio0A76cXlpB4MEAoEQc29F2HZKgY2maQa08JUdEOkwehDpViBOqsM9ANWzFGn5VDilnYyKXHYAzrNg4hf7d6+85OWH/d8MfBE9+u6AsXry+IeEX5VI9kbNy2xPxZloD57hfAsq2/lWsbTffeCn/+5pUKuufcFpZ+sHUE3Rp9sl9F8801cq5RxUpNzjGHszgRUCshKEEfi8Tz/ZvlkrvG5Pud6nTePmfPfgSKSU8szRg/J2BH2fSaVDn0NF6UWYC78b0GJpwf4cyiY7qogu+VNs0TGAxwCz3Ij9b158o+zZ6bxy6ZV7LruWey67lpyCPLvzK//MzLKD70llWD5NZKzc9YGLbFg08ZsZhWNuGagFuAy8NucTbCXPXVHB3LJQCLwFjPQIse/r6wbK01q0Kb8wCcGIG//ntMtAMBjck72v4NK3X1ibZQXX2/A5KhPYCdghIGvJg0eeUW5ZFpZleVFVAJEcwlxgTUpKitT2SbnutDrOmbyLw2cqJapk+gPgdSHEhgYNGviWLVtGWlraEV/4lFNOYeLEiYe+TpmIi4vjrLPOsn/++ec1wI+oIOpvwKfAIiHELrfbXdy9e3d75syZJCQklEs/CSEYPHgwgwcPZvjw4f7nnntuRSAQ+Jdzv18VRu5C7UidA4HA8o8++sjft2/faDyXQ2GjyvnHAh97vd7svn372v/+97+P6IweCXfffTd33303tm3bF110Uf7ixYtnW5a1ETXv/iZUMiIc0oD/k1Iu69+//8abb745GneVeYR92A5MAt5zuVz7rrjiCvuTTz6hPOf/ggsu4Pfff0dKaZ9xxhk5q1ev/ty27b3ACCdoFc6/TAUuDwaDc6+55pr9n332mdYqERgcJzxs20ZK6eFA1rC8KAY2JSUl6QvwCPAF/DQf2Z+9VqCGVL2dYx1FX6uS5dNA9VDdCIyTcMWK0oKE1iMfwB8MnPDPYdKXH3LSyAGGX8qmqF66Z4i8dO1o4EH1Lj0MPG1B+z5fvmEOmz5BH4bqaokKQbcadSSqDO5fqHLOIS6YXcdw7Xmx4yX+XQ9Pkh1btS+3c37o+y0fPIZTvAk+oVirX0f1w4VDPaBzsbSNoBWMxdZYqJLVfwr4oL7pzl58yzB5+V/Or3DQr2aNFDYMm8CpcUklQmVpXkSVJIYz5tzABRLS/rtXk++Ew5dbViFVKXmXMM6FDfwEvOpF7Pv48jsq5Jwf9sG5XDRNa8j6oRPYO2S8dWZ8cq5XiJUGvGnAN50Ta1quMuyIHTt2gMriRjL2TzrytKd169ZSS0K5UA8YiKoqMg+zv9uA54ERCQkJq2+//Xbfrl27ynTOK4LFixdjGMZ+YJrjMN5pGMabqamp6/v27VtYUlJiz507l8TExEpJSgwfPpxnnnnGNk1zMzABVT4fTpbigW62bSd98MEHsXhGElXKP0II8Va9evUyMzIy7DfeeOOonfM/GJOGwYIFC3jggQeCcXFxG1Bj9d5xgniROM9/AXrm5eV5Ro4cGat92IIK9E6pVavW3vT0dHvmzJlU1DcRQrBixQquuuoqv2EYPzt7sT4CWQhVpTWfN2+ezpJpBz0yvPzyyyGCuAYV3KP9wM60tDR9AR5OY0hJ+7GDybPtEOvmcFT/nTuKb+tBjSIZAVyfZQeT/jLuISQn7iMKWkGGr/rOCCJbokbE3IvKxEVLP4TmYt4IPCvhjNd3rjU/WTxXH4pqilFX34NXiEIBM9yIRVfXaZy3d+gEe+OwCdx96TWVfzEZBt8/OIoUwyxGZYF+5I9Mx0cy/k6TkGBZUefk/J8BLmBOK0986e9Dx9O6UbNKfZOFD46kocvjQ/W0z0D1koY7W02BU3MtS0ipr56ysL44D1Qw+GTKrtAoBmYJ2P7CXy6T53f4S1TX5XG7+Xbgi6Q/PFlmDJsU3DP4ZWv2gOfK/Jtrr70WVAYvkvFqEtV+V3TyySdrQSgfQpV5iYcJ5mxGBbn/nZaWlllYWCinTZsW1cW4XC7OOeccSwixyDCMzzp06LC7sLAwkJOTI6dPn14hh/RIePjhh7nkkkssIcQy4GPnnITzOU4F6h5UOh5NZAOThBAzWrVqVZSenk5ycnKlvfiYMWMoLCy0vV7vTlQV1WcR6OiQ7FwvpWw8ZsyYWOxDBjBOCPFJmzZtCrKysqhdu3al3tczZsygW7duQSHEIuBNFL9CuLuqEdChpKTE3Llzp9Yo2kEPj08++QRUr0idCuxRaCxKQdOmTfWmHs45HzWQbNtKQvVvPYwq54uFTJqoLO5jwNU7g/7488YO5UQ0ZguKi2gw8gERRDYBHkFVMSTH6O3jUSSAT0no8I/FM40ZP8zTh6MaovlJjdg7bJLMGjYpmPHIZDntrseI0jizA7e3EIw+tzdCse3+B8WAHu4+awGkXv7KE9Heknzg3wJmt/Em+H4eHD0ja+WQcbgReahS2S0R/EkNoGMQ6Q4Eg1p4y4BPSuE4teFYQ7OB3wwI3nZRr5iu0TQMvJ7wlSnbt28PBT5TI3DQbVQG3de5c2ctCOVUURw+c74HGC2E+Lhp06YFO3bsiFkb3cKFCwkGg8FAIGCtWrWKKM0b/wNmz55NSkpKCaqveWsEf1IHaJaXlxftTfGjApsfpqamFqxcuTIqz8E0TebPny9dLtd2YDywnPDBZIFqH+yxb98+t0NKHS2UooK7H9WpU6dw1apVUZPHb775hqSkpBJgFopDJtw+JALtpZTe1157TWsU7aCHx759+0IOekoFXkYCu4QQpS1bttSbegjG/fc90q2ABzUTcRCqnUDEWPZPBh6ScP7vviLXO/NnnVhBEiSdJj1CAFkLuA/FShrr+WdeoAcw1IKm9y2cITJy9+sDUh2tUSGikoUpC326XUKcEEEUSdZ2yi6bE6g2luQtvqJoLsty1vNxvBBFc+99OrqKSggur9NIAutQrLvhenLcQAsJibbU0z3LQlCJ08Fs6UdCCZAbJwxpiOppNpWWlgpUcDWStiQ/itgweN1112lBqDzkAVOAD5o0aVK4detWPB5PTBdgGEZM9bQQgl69eoVKyb/nwAjJspyytiUlJYZlWdFc2k5gmsvlSs/MzCQuLi5qb9S1a1euuuoqWwixCtVikB3BnyUBf5VS1u3VK2pBv9C9Mc3r9Walp6dHVR49Hg8PP/ywFEJsQ010CVdNYAJnSCmTfvnlF609tIMeHrm5uaGLrgYVG7G2B/CfccYZelMPwta9u3h2zWIhFcHKIMKXF0ZT/tsBg2xoNWzJVydUSehVk54g0wrGOY7534ld5vxQxKHGlfzdj6zR960X9SHR+B86q/733agZrXYYBz0VqF0s7Wjqk3zgYwHbXzj7clkjITHqe/DYX2/CUOO9FgE5Eei1pkBKz8lPaAGqHDvIAFx2NW6FCgQCoJIKkXgiJUCmEEJGqyf6BIQfNbrrraSkpLw1a9acMAS0jz/+OIZhFKPGD4aLjrqAepZlmcHoVfgEnGexvEePHnYsOKA++eQTGjVq5AO+QE02CRd9MFE2cNsNGzZEK1hRAnwihFh7yy23yFgEbh577DGSkpL8KCLZcIGKUJl76vr167UG0Q56eDiR6NpULJvoB/YBwSgwVR7TuOzdF7FUmdM9KJKIqpRDF2rcw+0+KZM7jx1yQjyDHRl7+KEg23CCJHejMo9ViWTUnOkLfi3JN4PRjaxrHEP48O4nECoztQE13q0sJAC1LVW6HA1IYA3wTV3TFbj1witisgetGzUjXhi2swfphK8kqA2kbvIVafKd8IhE2SQBdf1SiqLS4mr5IaSS+WRUVVI4+IA8IYQmKag8vbAJeMXlcu3Kzc2ViYmJJ8yHb9OmDaZpWqgWnEgCiMlSymj2SKUDs03TLJg0aVLM9uGjjz7CMIxMVD9+ZgR/Uh/4i2VZ7nfeeScaMrkV+Do+Pr5k3LhxMdkDIQTNmzcPnYfNhCeLSwZqFxYW6rvqMM6JxkGwbRvLsgSKOKYiDTzFOBHqpKQkvbEOvlu1hCwr6AK6A5dT+Szh5UE80AeYt8Vf8u0pIwdYVZPQjx0C0sZSFSI3oUhbqjpYJ1BtDnfYsOLkUQ/s3Dpsop5Tr4FpGhgQtFSJuz+MA+IBasjoHWAf8LWA9FtbxLYyqnONOvLb/Ix9KHK6Uyn7MyYANfxo/4syhUXIUmSBI1dloRbQ0Yb5//x4SsnYWx+sjh9HOIGESGpY/UCJx+OJqYDYtk3v3r1ZtGgRgUAgZspdCEHt2rXla6+9xmWXXRaNtygC3hNCLO/du7d9Ik7tqV27tkxPT88kPDmY4cipO0oVizZq9OVvzZo1s5s3bx6zPejSpQsNGjQI7tq16xdUD/alYWwrL9BNSjlt+vTpGbfffntlLscClgIbu3fvHlM/5Pzzz+e3334rkFKuRSXARBj7u2Fpaam+kLSDXjbWrFkTuugi6UsrC6VAjsvl0hbSQRj89XtIlT2/ERU9rC6GTVPgRgv27LOChSfAoxAoxvwrq0mQJKSPzgEuLJT2+1/+8l3gis4X6ENzojvohokLIS3kvggcKROIkyCKSopJjK90SoUs4GcDfA9eHtvKqPfuepz6YwYWosr9rTCGnwdIDKqsqr6DjoAapov8oD8HVaHRKIwh3UvC59N3b/htlG1J06h2TphwjN1I7Log4HO5YmsCzpw5ky+//NK0LKuZE/SIFQJFRUVb77zzzrxdu3ZV9muH+nz/6/V6i6PN1l5d0atXL6ZOnVoI5Dp7UpZTFkf4UYDlftbACiBz7dq1Md+HzZs3ExcXly6lnO84p4lhzmw7oOGqVasyKnkpxcD3pmnmf/755zHdgyuvvJLJkyf7pJQ7Iryr0pzEqL6rtIN+ZOzbtw8ppeEcqorsjw8oinWEujrDsm22BUoNoCtwbhQVdHngRmXR2xGehOl4QT1U1ro6oTZwlQ1fjfnpywztoGuAIkpDyvwIzqYBuAWI9bu20rFV+8o2xHcAm2uZLjspPsZ8iuJ/xmduBIaMB0iSx3spUAXRKiGF3fmZucBGR/eLMna/A9A/gBzRYOSAnU926C7vv/yG6nG3HmgJMojsmduAFWvSx6+++grbtpOAB1EVdLGSz31SymHZ2dmLo+AE+ICvgY2PPvqorFGjxgl5lsaPH8/UqVNLI3TQRRSffQHwi9fr9bnd7pjvg9vtJjk5OZCXl7cIFdAN1+tQG+iQk5Oz0rZtuxLPZBawLCUlxYp1IO7iiy9GSmk7ayil7GSnCaQEg0FhWRYnYvWJdtAjhBNdDUWiK3JSfEBxLMZcHCt44O0x2Kq06VJiGz2PFKlAF/2kqtYXQ82p77CmpPBbKaUUusxdX1TqWzGR9Qsrb7ryQ6M2qq8u6/aTz4z9HhgmBli22gc7gi2L05JTNq5s3ZHvls4pkPAjcBllt7XFo8ZQlvqlHP/kqgVb52z9zfqs3zNV3orz9ddfI4QQUspIPZIgEIg1w7jP5wvp+HpA8xg66B4gTkanoiQDmJ2QkFDyxBMnPCljwHHIqjIxlQ2sq1WrVpXYDkIIWrRoIVesWLEFVWrfhPAl3u0CgYA7EAj4vF5vZSwj1AO++8wzY39XGYaBUkcyn/BVbwLwSCm1g34YY1jjIBQVFYXIVuIquD9+oLRx48Y6g+7gP/u2hhgbO6GDQxpHRm3gfD/So+c4awCYAokKelbl3LAAsElA4UNX3hr7PTBNDGV4RRKkEPp+D4/bLuyFqZ7rj6ixTOHu6xTgDuBFGy5aVJCddNKL94urJz2BVYXEllWRKTwGEQ1vTaJ6jdd36dJFB5MP7ElVvvcOYH+7du2qbBF9+vRBCJHvyEY4xeBynPjEbdu2VdYSbGC9EKKoCqdISccPiui+ktEjdtUO+vECZwa6ScVGrElUlsP3/fff600FikqKKVGjj1oR+5nnGscWPMCZQM3bpz2vd0OjOhh+oDJD20ywXYaO8h8PME2TtnFJNrAa+Jbw2R5QVWC9gAnAw37kad8VZCU2GDlAPPPJ61XiqHfu3BmpGLcibc9yAW6/36+FoGLwAz8LIfJuu+02vRvV445YL4Qo6tSpU5Ut4p577kEI4Qd+B8JxGoXGYqbedNNNlbWEALBNCOGL4oz1sj+UKtUvJfzkFQ3toEeGvLy80L7EVYKDrgXTwdxffwwZBa1RpeQaGmXppeZA2qLcfTqQcwLjuRnTuP6V4djVI6BXCuzyCEPGundXI3pY8MCLuFTf7NuoktRIAkFu5y4bDEyVMNSP7DJm07Ia9Uf2N1q9NIB35s+K2Wc4iKFZRrh+AZhRYtE+kZAPrDcMI3jLLbeckBuwZcsW7r33Xq666qrqsJwgsFcIEejQoUOVLaJevXq43W4bVZWTF8FZrAWkbt26tbLuuWJgD2Cfd955VbIHTqm6jSZ+Kzd0mfEhKCwsBJVBr+hMggBH0S95vOP7zWuQKjPajIqx42ucGEgB6jlVF1rBH2OQUlJUWoI/4Gfi3I/5z/a1+GyL/XZQBCXCVo9USOeLAyXZoZ+FPPBvw/lKpWqDyqXAvng9O/q4gmEY3NmkvZyyY80KCZOAfwENCB8UEqhxdp2A9qj+9O+C8HmWHfx14M9fZj/2y1eBL68fKNs1bYkZ/aCOBEocuyPcHesCPEHdQlRR7Ae21ahR45gcrRYIBCgoKKCoqIg+ffpQXFxMRkaGKC4uJhgMCimlsG07RJwsnO8crKsVTYwI6ehaqIkHVRVQDQJ5Qgi7TZs2Vbq3NWvWlOnp6VmEHzsHqg89uaSkpLLevhjINgwdTNYO+nGEQCAQungrqm192kE/gM35WUiluE9Cl7drhEciUNvWsnJM4J35sxi/Yj67A6UEJcJCmhJcUjkKiY7hVhPVOhSPqlDyOMZcvPPz4b6bjrNhosYzViW5ZAFQWM/t1Q/8OMOIG+7jw9EDS3Nta4ZzRz3gyFsk+ifkqJ8CtESNrvxFwreF0l58/odjN5lQlGqYds+05rx86yCiaDSXoJID4QgC3YA3GAzqAGjFAiL7gbw6depU+z3csmUL9913HytXrqSgoEAEAgHDsixTSumWUnod/VwbSHbkOc7Rzx4OTDVKcGQn9D0eNc88pKMTgbOq0MbzozLWdseOHat0v7t168aMGTMKHBkJx2qfANT0+/2VdR5LgcK4uDh9trWDrnEYxa0z6AehMOgPGQUpejc0IoDHMRS0g14NYdkWz894gw+2riLdChiWMuRqoNiZ66O4Jk5BkULWdc59DcfoczlfJn/MnP8hg86BbLk46HtVyYN0DL9AnKGvzePOEDJNtgydQKOX+ucUS/s15+6+D2hI5FUbwrnjGjhO+kXAduAHC77Itq1V0/duyvjwpf6lV9VtKif/fQjuShx/5LAmFxJZH70XqBHrDPohJGqSY1u/S1R2tOSiiy6qlgssKSmhf//+fPjhh6K4uNgNJEgpazs6uglqtGBzR2/XOsg5Dzncoa/D6WZxyFcIVZmy9QH51SFzPH36dOLj44uATFSptxnmPKZWIlFaACiOi9ODPLSDrnEk5a0RMuhVr1vIgNHQCAeDilexaFQy3vrmc55ZNpc82zIsiJfKAT8VOANV5tvSMf5qOPeLcYiDfSyjCLA8umTwuIQQgrX9X6DdxEcyi6X9Cmp81v2OfB/tvWU4zs6pQFvgamCVhIUB5MJPMretnjFqQG6CMKxrGrRk3K2DKq4wDUPatp3vOCnhEAfUklIalTx7uUzUrFkz5DyspHICsB5nf9OqQL+EHHTfyy+/XG3keMuWLfTt25c1a9aI4uJit+OQt3V09Gko7oRGqIy55yAH/HjQ0UGgpBqVdftQgV0ZgRzXAIRt25VRYRMA/KmpqdoP0Q66xuHue3T27w+b4cDWu6ERofGjL5dqgpyCPM5+5Z9k20G3VBnxM1Fzo7uiMjHJjpFxPHuvFiANrdaPW6Qk1mDXsIm0HfVAboYVfE/CBlQm/RJU+e/Ryrdw7Kx6wMVAN+B2YJkN/ymU9o9v7d6w56MX+/k+v7qfPKtVe8o7qsvr9cpgMFiAKm+NxEGvJ4QwFi1aRPfu3WOyv3feeSeTJ08uCgaDr0gp36gMnx94AfhbFdlb1Yal2rIsLrvsMr777jvDsqxkKWVr4EJH7lqjWjbiOL4D30Gg1DTNKrcdnHNsodpOwq3HBcQLIcTy5cupBAZ6G7DuuOMOrdS1g65xmEvZi84A/g/xpgtUVC9f74ZGBAigxpNoJ70KUewrpeP4YWRaAZetSncvQY2Y6uI4LC5OnEBkKWAl6x704/vyFoLVg8fRa/ITJb8U5XxvwybHAbwB+Asq01WeQFSoV70FaqzSJahM8pwSKef2mDFpnVeIkrMSa8ov+j971C+emJgoi4qK8h2HIBwM4CQppeeLL77wx8pB79ChA++++64cPXp0jkPIW34PxLZZt26dP0IH6LjGFVdcwbx584TP50sBOgNXOc55Uyo2keiYPcPVBDYqiy4j0A3xgLFhwwYqa0Tc4MGDtULXDvrxA7fbDQd6yCsCj3bQD6BJUio/FO73S1U2eKz3nmnEwDcEsoV20KsMz8+YxrgNS4UfWdMx9u5wHPPUE1S3+QXIJO2gVxdETTe4TJPZA54jtzDf7jT5sb37bettCfOBS1Fs7aeheBXKew5MVPa3O4oF/kZglk/KmT8U7l/f4MV+xQtveVi2bNg04hds06YNGRkZ+URGSmUATaWUcWvXri2M5UO7/vrruf766yv8OqWlpcTHx5/QByAvL48OHTqwa9euOCnlqcDfUcGkho4NqlH1OipSPWVIKUUlMrlrHOPQzXSHICUlBVRZSkWydzqDfgjOatgSFHnNdjR5nkZ45AOZXj3Sqkpw46v/YtSGJaYf2Rp4DBgH/BWVNa+IXgsZLLbzZaHKEoOOfvCjMtUlqCBNEWpGdRaR9fJpnDiIepA3NSmZTcMmclvD1v4EYWwW8G/gLmAY8B/UrOFgBW2FJMfhfwh4HRhUIuUpZ7/zgrvlSwMoKimO6IWmTp0a0pu7Cd9KJlCZ/JQ1a9ZoSToG8f7779O4cWOxc+fOWlLKW4DJwN2oUbYVdc4P1tPWQXo64Oho30F6usiRu/2Ong7op6OhUXHoDPohqF27dshBL67gS8UD7tGjR/P4449rg//cyxi6bG4A1dOX7xj6GhqHgw3sBPY1dusxIbHGpeMfYWlxnluqzN4jqB7GxHIaeUHHkCs9yJDLxxlZ5vxfqWPwFR70fwWODi7mwESMS1GkXQn6KWnEEuNuHcQ4ICsvx991ypObs63gDglforgYegHnA42dc1Le8vc4FJFXS+ASCVOz7eBXzV9+aP/AVmfJx6+5s8wXaNasGc552eOcl3CBtLpAi+zs7C1SDbPWD/oYwerVq7n99tuF3+9vCPRD8RqklUP2Qk54qFWg5CAdnX+QHg7p8ELn3wfr6tDkgCCKIPQpR4Y1NDS0g155qF+/fshBKKZiUfF4wPPuu+9qBx1IjE/AK4RdKuVGIB010kNbBBqHQxBYA2S/c/0DejdiiCc+fJWlxXkuqcjfnkaRWh0Ng3WIFGcvsBHYDKx3nIYsIBuVaSkFLKF+33Z0rRQHfRcIKQQIkJaUhqXGAenqG40qQ52UmmwcOoF35/83MHzJnL15dnBfEBYBbYDzUK0gHR3n112OO06getzPQ40q/EsA+dqYjUs3rHx1p/XRP4Yf2ZhzuTBN029Z1hbHYQqXRU0CTi0qKvo2GAxaTnufRjXHpk2b6NKli/D7/Y1RVRe3ototIpU16cjHfkdHb3V09DZHP2c63wuFEEEO6GhbqIo2KYQIfWGapjQMQwohKCoqau047FUFARi2XW24iAWRV5xJIQQ6UKahHfQjICUlJTRPtJTwswvLggeIz8zMFOiyTAC6JNWWCwqydgCrUDOSq1sLQCjjJ0+g818d21zygMUuKG3ZoIk+ODGCbdu8snWlIdVoqCeOwjmXqAz4bmAp8DWK/Go3UCDAZyKsGoZh13N5+fiWh0iMU72jQgg8LjcJcfFHNEws26L+S/01q79GtcEtF17BLRdegWVZ9vMz3yx4dfPyZcXS/k3Ch6hxg38FLgBOdhzho73rDBQp491ASxuenZe7b+kVEx8P/PcIBHKmaZKcnCxzcnJWobKfSWHewwucbtt2jfvvvz93ypQp+sEeA+jevTtFRUW1gf7AbY5zHgmCjlO+FvgW+AEVQM0VQpS4XK5AQkKCTEtLkzfffDP333///3SyaZokJibich3ZZXA4AapaR7uAeMuyqovdbTi+QDivW6IC23bbtm21kGtoB/1wcOZ0SlQG3aL8c7u9QEJpaaneVAcf/+Mp6o0ckCvhG8eAqVnNlpiP6ivcdwI8DhM4B1XGXJ0CJRL4Dfiltum2DT1zOiawLItmox7AUiWKD6IyeJHoviAq8/I5MAtYZUC+WwirrumWPeq3YNRNA9DPUaPSFIREOLJZ5UJlmib/vPZO/smd8p35s3zPLf16T5YVTLeQ30tV8XE+0APFrF2vHDZXAqq1I17CEz8UEWAFxQAAIABJREFU7v/52U//bR2p3L1mzZoyJydnJ6qC5aQwjoHpBBMafPrpp3lTpkzRAbBqjn79+rF379444GrgFtR4y0ju1BwUyeGnwPdCiH1ut9tft25deeaZZzJ+/HiaN29+vPg0cVLKaqCnZGg9CRHoqiBQIqW0O3furAVdQzvoh0O9evUwDMO2bbuIis239AJJPp9PZ9BDwma6qGWYwWzbmu84YedRfcrcbVRE+V+oEvzjHQbQBxiFKsesLigAPheQMfDUc/WhiRFe/uI9iqTtBa5EsQBHQlVeDCwAJgA/uqDgotT69rt3P47b1FeLRpQM3wOOa7Wqyb71wl7cemEvbNu2t+3bXXzh2y+uKZDWRqmCvmc6+rY70CjC8xWC27krH5UwdMKmZesflf8njcNUnPTo0YMpU6bsl1KuQPWzlxV8FShCsQ65ubnrt23bZjl97BrVUe6l5M033xRSynbAvahgajj7yUKVr78GzDAMI71169bBpUuXkpiYeDxukwdIcjLo1QFe1NSTcOsJOLaP1MFsDe2gHwHt27dHqtBXHqpPp7xIAGpXI0VRLdC/bVeeXrN4t4QPgA5Unyx6FvCBgJ1DWnUKPHr1Hcf1c2g7eiAZVnAesBDoTfXIotvACmCuRwj/PZddow9MjDB+3c9INTP3FiIjcCwCPgZGmrC+iTvO+umBl/DoPlaNqCsJGWI+r5ZjpAzDoMVJjdn+8ESmL/jCP/yXr/bk2MF0C75H9adfhaoga34UQQY3qr/9bp+UI84aPShnxUPj/vRLd9xxB1OnTi2RUi5HjW4LV+aeCpwnpZz9yCOP5H/wwQdawKopevXqRWlpaRLQF2gXoXO+AnhaCDGvbt26JaNGjeLWW2+Nyvqi9bpHCTeqqkBs27aNqgw43XDDDaBII+tF8KxKUa0GOpmnceAu0Vvw58vV5XJJVK9ORQYSxgN1AGPfvn16Yx082OtmEoXhB75CkesEq8GyAsA8YF6qYQYev+ZODMM4rr+mXX4HQpXyv4kafVcdLoYs4B0Bm4e06SxNQ08pjInwB4Pk25YbVUrbgcii/XOBFwxY99kVd1nLh4yNqnPuCKcOdp7gKCwpQio5SOYYmPN88wV/Y+OwCaQPnWBfllo/11QVJ0+hesvfBHYROfFhAqq0ueuOoM/8fcfmP/1C586d8Xq9QRQHxN4IXtMFXCilbDFnzhxRHUqDNQ6P7777TkgpW6FaJuIiUJmbgRFCiLmdOnUqSU9Pj6oTvWLFClCB/qr0K1wokkXj119/rdLn9f333wsUP0DNCO6uEiDH7XbrA6ihHfQyb8GEhJCDXpFRa27U2AvX9OnT9aYehHHn9pYG7ECVXW2pYudQAr8DU0xI/+DKe06IZ3BO+440dnksYDGqmqGwipdUAswEZtU2Xf6hvf+uD0qMcPGER5Aqax7JODUJbAImmLBpeIfz7XNPPSu6B1TKkILwaif9xMZP61aF7JZUqlmJe5leg+nig388xe7BL9vtvYm5ptK7jwCDUZwskdgaAjXK7Vobkh+e9cZhf+mUU06Rzr26JkLnvynQMy8vz/vqq69qIauG+PLLLykuLnYBXVDz68PpwQJgmhBiXrdu3Xy//PJL1NnB8/LyBCpoVpWVuS6grpTS9dtvv1XpM3P2ox6R8QQUA3kJCXqCqIZ20MtEcnKydByWfCo2aq0h4Fm1apXe1INwzTk9aB+XZAHfAa+iMqdV4aRLVJZhkoBfzohPts8+5bQT5jn8OmQccULkAa+jZvr6qmgpQVT55ysmZM26YZA+JJUr42Vig79YAE2AtoRvdfABMwUsOTWuhjXgb32j/wFUVs9AZSN0W9YJjKXb1oWM8HrHoix4PR4WDxpF+tCJdkt33H4Bn6FIGd9CEXmFO68uFPFcy+WFOYf1uH7++WeEENmoIEAkLLXxwOVSyuaPPvqoDoBVQ7z55ptIKZNQ4y/DBVFt1KSc/yQnJxfPmTMnJmt0CJHjqdrKFgM4WUoZv3r16ipbxLZt27Asy0BxPIRj2Q+R+OW1aNFCZ9A1tINeFhw2yyIgt4IOehMpZfyOHTv0ph6Cef2fI1EYRcB04A1Uz3+skQNMAT5JNoySr44wvuZ4hRCCNy6+SZqqmmGkEzAJxHgZFrAMeEHAmgdbnWWf0qSFPiCV+JjLNCTSdxOQ0kTNcU6L4PX2AvMMKJ5z/4iYfABbSmyVLa1H9RvNeELKU1WVQi/ZuxWpSr1bH8v2i8s0WTJkLPc3Py3gRqwDngWmEVklUxpwTrG0zaD15w4xl8tFzZo1gyjW7kiMDwM4Dfhbfn5+3N13362lvJph6dKlSClTUS1I4eTej+KW2TZ+/HgZKzK40tJSgapsqco0sEBxOyQvWbKkyhYxefJkUBVf7SLYD9s5p7nvv/++FnYN7aCXhdmzZ4cc9MwKOuiNgOSdO3fqTT0EHpebncMm4hEiExjvOOk5xCaTLp1n+xrwarwQOVuHTsR1AjJP/7XTuVxW8yRLqJ7FpxyjLlazAYOoudnDBSzqlJAS/Oc1d+nDEUvDb9MapHJ6G0VoSGwBNjd2eW2vOzaJkgfeGQeK7KqRvrOq3rcE4vyKqC3mWFeUC6qnM5Iy32qPZ264jz1DJ0ivEHuAicAcwvOyxAFtJcRZlv1nw0MIevbsGWpF+YbIgq41gJullKe+/fbbwrZtLenVCPn5+aGKzEgmruQDi+Pj432xIm7bt29fKGPc0JGlqkQdoIFTYl5lPoQTUDkjgjvLQvEAFTVp0kQLu4Z20Mv0rIVACFEE7HGM0vIiBWi+b98+Tb5yhH3+9a5/STdiDzDaMVD2VnDPwyEUrRwDvOwVImPlP0bIaPdnVWdMv/dJetZqEBTKWX4UmIEz8iOKb1viGI+PC/i2rTfR/9WA5/WhiDFW790WcrrqEr5k2Aa2Ajkf941dG8K8rB2geuQb6zsrqnoxGMGZdwNJloy9cyylJNsKCuBkqtdoyIpFPEyT6ZfeKg3YiSKO2x2B3dYYqLFxz/bD/sLw4cNxuVxFwGwiI4sTqBaXu/x+f92TTjqJYDCoT0U1gJSSoqIiHOc3PoI/yQG21K1bN2Z2zcSJE0GVtreJcI3RRArQMS8vz6gKGZZSsmXLFgGcgqr0iYQg7ne32+136ykoGtpBLxumaWIYRhB1YVZ01NrJJSUlhmVZemMPg5Nq1yV92MRQBmEc8ASwnOhkcUuAnx0ndHKCMPbtGTpR1k2pdcI/h+n3PEHf+icHTfgVeBwYC2yj8ln2bdSc+beAhwR81zWplv/7QaMwhG5/jDV2F+QgD5SPiwie3T4BJU3SGsRkfQUlReTalgG0dAxULSSVDgEqyxoJUVkCUMeqggx6wAriQ7qBs6n6LF2l4uIzu9JQkXYuR+lgK8wDqwsk9v9s6mF/oWXLljRv3jzUPrSYyLLoXuBK4KrMzMz4Cy+8UB+NagDbtgkGgyFG8HBBVIlqzSxo0SJ2rWKfffZZKGPckapvQ4oDTrcsK/H552Mf9H/22WcpKSnxAt2JbIxwNrCyZs2atp6BrqEd9AgcdI/HYzsOSkUcRS/QMhgMerSDXoYQGgabB46WNQ1zv1A96QNQ/XjbqXhPtHReYwuKkK6/gE/TTHf+lsFj0QrxACbd/hBjzr7cjhNiO6qiYSDwHyqHH8BGld59i2IvftIFa+5vfnrwixOs9786IWBbIYM/ktC9BRQKkCJGfvJLn7+DVAZXZyKbz65xtO65AKEC0fmEr16KB9IkGD//vjKm6+w+/hEcGTiLY2DE2tFi5k1DEGp6zIYIHHQv4N3lP3JMZe7cuZimmYWa0hHprNc0YICU8vwffvjBde+99+oDUg0cdCmlcM5eJAZLARCsVatWzNa3adMmAZxKZPPZo27CozgVGo0dO1bE+lm9/PLLSCkbAec55zScffq7EGJ3u3bttLBraAc9vMEiQkzuWx1lVxFF0QpIufnmm/XGloHEuHg2D53Av8+/1mfAL6hM+j+AdxyDpZDI58WGnIkCYJ3j7N8DPO1GrPik5+3+dUPHE6se2mMJt13Uiz3DJsmzE1LzhSqPfBKVhalI20EpirTmUeAfAt6va7oyNw8YKZ+54R9606tS1/3RUKh2d8b07auRKnPe43h0yqqFESAEQlXKZEWgYz1AMwmez35dHLM1pu/PYqO/2ECVYXfgOCQLbF6/EYYKJudFoG8FIMr6pWbNmnHGGWdYqAkZs4hsSkeo1P1R27Y7vf766+Y777yjD0kV26Pl0dGxaqu87rrrKC0tTQQuA6pDOaJAcVR0zM3NNZcuXRqzN/7ggw/Yv3+/GzjHCViEuy99wA9Afp8+fbSwa2gHPRK0bNkSFJHYLipGFNcYqLNw4UJdmhnBRXR1t4v5+poBdnO3d78Jc4EhwB3AcOBDx1nc6zjsJY6C8zk/F6B4A5YC7zlO/h3AMBPmt/LE5y77vyfkRad31psd5jnMeeB5Ug0z6BiKyVQsKr4deFjA1ERhbL6rSTv/hqETSE5M0ptdxYh3eXCecSSVQiaQJMGIhfH31EevkWtbXuCvqH4+rUOjYQQYBkLJwF7Ct3QZQCeg1rd7N8dsjUM+fgVblddfCjQ4Hp+DVF8iwl/1A77m3rIZut977z3cbncuqjJtXYS2jAs1zusp27Y73X777ebf/vY3NHFc1d3HhmFIVAtKuACacO5rT0ZGRtTXVlBQwKxZswTQHriY6hNETQUuB1L79esXszd96KGHsG27PnBthMGKdOAX0zT99913nxZ2jT8pYo3DoHXr1vzwww9FUsqNQLdyGocCVTLWYv/+/WsLCgpkjRo19OaGQcdW7Vg+ZByWbdm9Jz+Vu7Ro/48+KZdJxeRcB9V/VxfVNxva0AJUGV+m85UloDBOiECnxFrys35P63L2o0Se6v1t7MhweZ0jCWwEtp6TVDswq/8IvbHVCA1r1ESkE5CqD06Gec4m0EBCwoufv5X3RBQZ9/dkZTB5y69CKsf8Ro6znuPqBNMw8QghS6Tc6jgByWHutJZAhy3+kl22tKUhoqtXbWkzN2evkCojdSXHaSVF0ApiK5sshfDJkzyg9Iv7ng5rx1x44YX2119/vVxK+TaKXyQSx8EDXASYtm0/O3v27J86dOjgW716NUJzhcQUhmHgdrtlIBDIIzJOmFQgZfPmzbuivbbu3bsTCARSgOtRBHHVRThMoLuU8rzly5d/HgwGLZcruu7ONddcQ3p6uhfo5fgMkbC3/wb83qpVKzva69M4Bs++3oLD48orrwSVlV1PxfqgU4FTpJQuZ3ybxlEYjrP6j2Dvw5PllPP6+E6NS8pOEsb6OCG+dyH+Y8LrBowzYJwJr7sQn8cJ8UOqYW44M77G/qnn9fHveXiy/Lz/CO2cHyW+XLIQqYzFtlSs99cCfhNQeH6jVnpjqxla1Dkp9IyyIjD+DBSDdp23N0ev/1gC5057mqCSu/8jslE1GhVADcOUKM6VzAh+vSbQMwg1LpvwWNSd1hYjBxBE1kVVQx0X49UOh16vPInjnJ9M2SX8oWqHSGam89VXX5GWllaCqkD7gshK3UNO+gXAS1LKPmvXrk1JSkoS48aN0wcmhhBC4PV6cZ55JM+uFtAuOzvbiGbVw8UXX8zKlSs9QE/HQY+rZltXD7jNsqzGtWrVEsXFxVF7o19++YVZs2YZUsrTgb87dn84FAFzhRAZX3zxhRZ0jT9Bh2yOgN69eyOECDoZ9DznsJcHHuBM27aTPvroo/3XX3+93txy4NpzenDtOT0OtuH13Loo4v0VC5GKlObMCl68xcBmIHDHhVfqja1m6HFGV/hxluUYfyWUnZ0MjbjqkG0Ht63ettE6tVnlBl1s2+aU0QPJsa0awC2o7HmCflLRxWlJtZiXl7EfldFpHyYg4gEuAT5dXpy3cNWW9fZpLdpU+pokkgvGP0KebScAV6Oy597KfI8NO7fS471R+JHi1PhkOfv+Z3GZsW9v37R7O8uK8yLtsQ+i2oaKI5l8IYRg1qxZdOnSZa9lWZOcM9yZyPr43aiWhueBtsXFxe8OGTJk6/jx4wNLliyhdm3N2xgLpKWlyZycnD0oEsGTwvx6EtA9EAjM6dmzZ/6cOXMqfT1vvPEGCxYscNm23RV4kOrZduJCMan3LSwsnHTGGWfkr1+/vtIrQGzb5uKLLxaBQKAhcD9wOuEDyhJYDcxNS0sLNG/eXAu5xp+gsxJlIDExUToXYXYF9/h0IO3HH3/Um6pxTOCn3HRQQakzK6gnsoGNLoRVJ6Wm3thqhjopNXEhLCeIsj+CP6kLXC2hdu+PxlfqWj79/muajBwgMq1gMnAzaopAXf2Uoo8bTzsXoTI6SwjPRxAiYfo/G07668fjxbodWyp1PaV+H61feoC1vqJ4VMnoQFSrTaWi9wdjyZd2zVIpOy8tzqudNrK/efJL/Zk8+8OY7f26nVu4ePpL2Kpi5HqgSZg/KQSWuyAQaVlsp06d6Nmzp20YxgrUhI5NHB3pWBNgEDDBtu0bt27dWj8tLc1MS0vjkUce0QcoymjdujWoRNE6whMIulGVD6fNnz/fWLJkSaWtIxAI0KFDB+666y63bdtdgH9Wgo0QTaQC90opr920aVNigwYNqMxMemZmJsnJyaKwsLAe0A/oTWRBxHzgIyHE9kGDBmkB19AO+tGiffv2EpVZ2krFWKzTgDMyMzMNTbSiUd1h23ao//w0FIN2eSGB3cDuWqapKx6qBmH3Pc3llsCOCPWcC0Xads1+O5jQYdRA7AoSxkkpee+7L7ln0QyjSNoNUFmIR4GmaGK4mOCac3qEGMSXoYg2w8HjOM73lki79kXvjxI7MvZUylqGfzyF5mMHiSw7mCrhOhTZZ1T6W0ukDSoj+RLwsg1X7retJv9cucDb4MV+4u9Tn8UX8Edt33dk7OGS90aJfNuuiSqNvTaMgS8d53pFbdNlH03//6xZs+jcubNfCDEHGMPREeAKVGb2YmAkMMGyrD4ZGRlNXnrppbjU1FRx8cUXU1hYGH2FJiUFBQU8+eSTJ8z5vOyyyxBCFDrn0x/Bs2oF3BUIBBp2795d+P0Vl+HCwkLq1q0r1qxZk2Tb9mXAC8D5RDais6oQImp+REp5c3p6eq169eqJp556qsIv/OSTT9KoUSOjqKjoJNRo4LuIjCvFQhEZz05JSfEPGzZMX0Aa2kE/Wrz33nsIIXJQfejBCrxUEtA5EAjEz5s3T2+sRrXGN7/+REAZiV2oGDmXhRqRlznxkpv0xladgVIm3rjyboAM4OcIjD9QRI0PSOizK+iv0fCl+8WIT14/6oX9vmMzXcYMpv6L94v7f5yVaMO5wHPAQ45RJQ4jT5Z+pNFBu7gkicrQLY3wvktBja8cXCJls47TnjFbjxxAfvHRO2mBYJDLJzzGSS/2E+M3r/CWStkOGAY8gyr7jqat4gIaATcArwKvSRhYImW3z7N31WoweqC77gv9ROuRA7jvjZFYdsVFcNKXH9L0pfs5c9ozriIpmzoG/oOErxgpBeYAe/s0anvU7/vdd99Rv379IlQ/+jhUAuJoImwmKuFwNTAJeE1K+UBeXt653377bd3k5GSvx+MxkpOTRdu2benXrx+BQPkofGzb5rXXXuOWW27hlFNOITU1VcTHxwuPx2OmpKTEjRo1KhWHE4PjPJB3zz334HK5AqgRtOkR/IkHlc0dVFJS0iQxMdE477zzjv4CtyxuvfVW6tatS3JysjsvL+9kKeVAJ0jThT+3RMkK2srR8nNaokbGPlxUVNRuxIgRntTUVHHDDTdgWUd3nkeOHElaWhojRozw+P3+04GnUNnzSOUwA3hDCLH1lVde0YkLjTIvJo0joGnTprhcLl8gEFiJ6qUtL3usG1UGVP/uu+/evH37dr25GtUWA775AMcI60jFouOlwEoDii447S96Y6spOrZqjwdR6kfOQfV8h2uIM4DWwNNA01IpPxq9admOyS8u9/+9SXv50N9uJjkh6Q+9vFJKin2l7MvJou/749gX9IkCabukCgC1QmVjr3YMqcPpWR+wEMUwfjY6s17p+HbAC6SN7L/fhv+gGLzD8a4I53fuB9pZMC3TCv7cbPzQ/QnCCLaNryHfvnkwXo8Xr8tNvDeOoG1RXFqCZduU+n3c/t5YNpYUUiAtlw2JTmDmElSpdwfU/x36rG1UO4aXymP3F449VA81yu1cxxFaZcMCG7k80wru+HDfltwPX+pfEi+EVdv0yCsatmZQzxtxu1wkxiX8qX89JPclvlLGzn6fmbvWkW1ZRgDpdd6rK4pr4VzCj7OUqGTBlyaU/PPqO47eEHG72b17N2lpaXmZmZnTnNd80AlQHE0QxHSCCZcC56EmqKyXUv4UCASWBQKBnevWrctav3590SuvvOI3DCNomqaVmJgoXS4XbrdbHtwLbNs2wWBQBAIBiouLhWVZppTSdJ6JW0qZgCInrO3ISAcncNPc+Tquk00ul4tWrVrZa9euXYPKojcmPIdACopkMy0YDL6yePHiVXFxcYWdO3e2P/zwQ5KSkkhISPhfT7aUkpKSEoqLi+nbty9bt25lx44dhmVZCVLKk3D6uVGcBDWOcC43ooLyl6A4bGINnyML7sOc71B11rm2bb+Xl5f37ccff7zr008/La5Xr57Vtm1b3n33XbxeLx6Ph4SEBILBIEVFRWRnZ9OnTx+2bt0qioqKvM5+XIIirjzjKD5rMfAR8FWbNm0CN954o754NLSDXq6wm2FQp04de+/evStQ7Lap5XypELlSm927d2/1+/22x+PRG6xR7eAPBsiyAgaqpLRVBQ2fXGCZVwjbrALiJY0I9ZwQdKlRSy4syF4JfAXcSfhgpAE0Ax52nLnZJVL+8Or21Ztfm/xoARAUB5XLS/X7hlSvm4LqaT0NRVZ1tmNke4/goASBxcC/gB6oYKdWoJVtDJgm9Uy3lW4FFgDfosqtw9kIobnLVwBnAT9KWFQk7ZVLi/O2t5v6VK5QpfMWB8b4CUcWvM6d2gg1Tu9MRx5aoarOjuSsZgCTHaf2kig4Z4bz/i1RvfY9HWd9k4TfgQ3FUm4uDvp2vLL9t+xXXv2tSCgZtcUfCUyFPPBZXU6wIc35fGegMpCno1i3I1GQecAHAn47p0ZtmRBXPv9HCMH27dtp0qRJblZW1jQU98Bg5/Oa5dirRGefmqFK4AtQmfndUsrdwF7btrNs287Nzc0tQJFRlvLHzL0LRUYa77xesqMnajmBgDTnex3n/z3OWk+YKtDZs2fTvHnzLNu2ZzhBkUiIi1NQbSKnA3N8Pt/8hQsXrm3QoEEm4BdC2EII6TjoQkppAC4pZRJQ3zmXZ6HGhrV3notxhODRLmAUql3qrCpw0IOO3rKde8JzGF2V6Jy7U4F1UsqfLMtatnfv3vV79+7d07Bhw3yUvrKdL3V+pXQ7stjSua8udD5jylHIYBD4DpgSHx+///PPP9eXjoZ20CuCjh078sUXX+xBMS6eXIELoS7Qxbbt+aNHjy559NFH9eZqVDuM++972Opi60z5JxeELux1wJaG7jgpdMKzWmPM1fdw9tvP59vwnmOMnUb4LLVAZVIucIyWdGCXhC3AVqkCNH7HUEpE9fo2cwy/eqhsWEKYe8gClqNK35c6zlwBFRv9p3EETO/9D3p8OiHThmmOUX8KkVUrmM6z6YPiKMhGBbWzpHLWsh3HzHSM/NrOnVjL+bnmQbJQ1vsVAO8CbzjO2oVRdtIMx9Fo7shud1SWrgCVxc8BMqXi2tgn1f/7HP0X53ymes7epDlrruucG89RrN2HGpH2XqIwij/r90yFPlR8fDwZGRk0btw4b8+ePdOllBmo1pKzKP/UDsP5TLWdr/YcaEsJHvTdz59H14aynm5HRsyDHPDQ9xP6EmnSpAmtWrUKrl+/fh7wJXATkQUq3UA7x7m80Qmc7AA2SSnTnXMpHDmvh8rON3J+rucEqzxl7L9EVVCMR2WHazv/rgpm923AB86azznC3WI4OugvTqCsyNFP2VLK/c49tt/5f9PRUY2ce6u+8/nijlLvWMCvwEjDMNY//fTTslUrPXZWQzvoFcLVV1/N7NmzC2zb/hkVSS/v5eUGzpdSvj516tQd2kHXqI6YtnEpUhmQF1CxLGUA+FlA7pVN2umNreY4uUETuibVsn8o3L9cwr9RxFyRMqgfnHE8GZXdCWUgQllT45DvkRjbFrAKeEbAYhciEEBud5wi7aBHAR1btaOtN9Fa4yv6AZgCPMbRMembjvNZA0Xyx0FyIA8K7IiDDNxIHa8SVPn9qwLSpZqw4id2JFXC0Yke5/M1OOhz2Yf8zCGyfjRyfyj8qMzbGBN2f9anX6WMihJCsG3bNjp27Fi0evXqL5xs932ocXY1KyHwEWobcFHJ4/FOVMyYMYPTTz89KxgMTnGc7k4RPifhPIMGqEDpWQfp6IPl1ThKWZWoQNwk4K3k5OT8goICU0r5O5GNG6vs85mCSgw8A4xwnHAzgvNc07m75CFfh57j8hy8A/eYED/06dPHeuihh7Qwa0RkWGmUgb59+2IYRgAIlblXRHm0Azrt3r1bs7lrVDvYtk2WFTRQveftqVjGIgdYKsDf79Jr9eYeA5h1/whSDbMYeB+VQc0pp54zHafJiwpoep1/u4g8ExZE9Vo+KeDrk91x/sZubyhTs4ejI7bSOAosenAkKYZRhMpUTwGyyrnf4iB5cHEgQ+py/u9oDN5C4DPgeROx1RkNuJ3wI+Fi4RQYB30+jyPzcc7PRyv3hwtKzHPOwarLazW0z2rVvtIW73K5WLVqFTNmzAiYprkMeBxFerXCeW99zqoR2rVrxyWXXGILIZahysk3cvQThg6W2UPl9WhkNTTlaBzwSmpqavakSZMQQhQDa4k9WZxwHG2XEGIRihQuUuLTg/flUH1VkQqOICpzPlwIMff000/3ffzxx1qQNbTddUNvAAAgAElEQVSDXhlISEigcePGIfKLzRW8sFKASwKBQNJVV12lN1ejWuHpT1/HUqXIPSg/30Lo4t4GrEsUhlU7OVVv7jEAIQQr+7+IR4hsYKLjpGdXgZFeCnwDPCJg7pnxyb4lQ8byyc1DQJUebkazuUdVDn7t9zxxB+RgomOIV0VUOZSh+zfwpAnrnjj1XDtOZZC3oUiXKuM9qpsjKp3AyDvAwwYs7V2nSfDte/4ZlTfr3bs3s2bNsuvXr79XCPE6KpM+GTXSzX+MO+o2B3gQjnnMnj2brl27+lEtD8+hMsax/myWYxM/B7yWkpKyf9euXbJ79+4IIYKokZ2FMV5TqMfc07p1a78QYgFqEsSXzlpkjM9vMfA1MEwI8dX5559fumLFCn3BaGgHvTLRv39/UJmbZfy5d+po4Aa6SCmbL1y4UDflalQrvLblV4Ei++lGxcpGg6i+4d0Ptu2qN/YYQo2ERPYOnSg9QuxGZWhGoXrKY2EA2o6efRt4SMCiTgkp/m8GvghAozppCGX0bKmgHtYIg9SkZHYPnSjjhAj1lj6JyqrGMmNd4rznU8CzbsTmx9ufYw+84ibqujwSRRaXUZE3cKmkWAGKYya3ioIQhxr2RSi+hSeBp9yItY+162ZNuyu6bXE9e/Zkz5499OvXz+fxeJaiyoTvBqai2OOLjxFHXTr6IdcJMMwGXgF+T05OPi4qAhYvXkzLli2LhRCfAI8A3zvnJVbyuRB4SAjxZv369ffn5OTIxMREGjduTEJCgo0KomZXwdbEAx7LsrjqqqsCpmn+BAx1dNhWYpPVt4CdqOqjIYZhLLzwwgv9CxYs0BeLhnbQKxsPPvggXq+3FFiEYlItL0Js7ucUFBS4damLRnXBm9/8B59iKj3HcdIrEkAqABYbUDTwCj3//Ji7FAyD9fe/IBOFkY7qLRyCytbkRMmBsR2ZWYgqsX3ChVjzf43aBuc+8ML/fsntcuNGBB1nqkg/qejLwZYHx8jahpkjVLn7/Y7RuYXoZVUlihBtI2om+X3AGymGmbll4Cg5qNctADSLr4EjA1srso5bmnfAUMb0QyjehTlOkCgQY2fURmX5lqOCYvcKmJYsjPQp3a+xh1x5a0wWIYRg4sSJFBQUyE6dOuW53e5FwKOoyQ7PoViyM6g+WfVQz3/A2b8dzhqnOHrrNuD/hBDjEhMT944ZM+a4cNCFEGzcuJGuXbsWCyG+Ah5wzsvWKMmudJ75RuBl4AHDMGZ36NChaOfOnX/gRGjUqFEoeLY3xjIS6rN3+3w+Zs6cyb/+9S8rOTl5M/Cis0cfOesKRmFtlvO5/wMMAp5OSEhYN2jQoOA333yjLxSNo4YmiYvQUGncuLG9adOmFahIcp0KODBJwN+klJ8NHz58z3XXXac3WKPK8eLyb0LkcH+jYrOFpWPA/1LXdNmmoWOAxyJSk5LZOWwi3cY+VLDeX/yFVJnMS4FrUDOIa3PksWiROiR+VMn678AsYLaA7TUN07d+yMt/mikNkGAY0m9bG1BMu4mHed0SjiLbHxoB7DiFxZTNVOwHZGUQdFUQAcL3B5dQCdmieG8cG4dO4L+/fOe7Y/6HSyw143gG0Bs4H0UEVwNVcSMqoDMCQL6jO+Y78rDajch/8+IbZc9O5/3BCWhXuwHz8zN9UjkkIbblQxFiDD/iyp667h5qfP6ONfb3nzYWSXu7VH3up6PafDo5ny/VkXUXlcckLp31lThG/e9OcGCBgG0eIYo/+dud8pz2HakKefN4PCxZsgTLsuzbbrutYMaMGT/6fL4VUsp3UfwkF6AIuJqiWK7jKygDR+uM+xyHPNPRBetRvb7rUIz6uYZhlKSkpFjdunWTH330EQkJCRE7v877+Cg7K21VdaDi+++/Z8CAAYGpU6eu8vl8T6PGZF6PCrQ3cp6LWUEZLUS1kywAZgohViYkJBQsWLBAdurU6U9/dNdddzFkyJD9jjPf8TDvH8198wKuYFCpvscff5xHH31UdunSJX/ZsmVf2ba91JHbq1Hj1ho690h5fSHLkZFQhe2nwGLDMDLatm0bXLVqFUbl20B+5z2NMp6bj6qvBgrtT2mYc+QDAqFxfxraQT9q9O3blxEjRmRKKec7B7y8rKQGikGz64YNG2ZalqVnRGtUKX7buoFMK2ACXYmcFfZICDoX+d4rGugxItHA7zu2/M+WjNDIkuWxmoUQ/Dh4NG/M+yz41LKvdxRK+y2pykXPQI3hOwPF3F7vIEPwcGQ6NgdGLBU6xswmYA2qlHeVgPR4YQSuOelk+fKtg47olJyZVIv5+Zm7gLGokTeHc16XCLDSaoYneq/jjgdfcR4q41YvzD7+DpQ2TalTZc/eFEIGpfweeCHM/V0K/CYqwQgWQtCr8wUsqNfAvnPmqzlb/KWLgsil/9/efYdJVd1/HH+fOzNbYWm70hSkYwClRRREE1sUBIVYE/yhQQVRIAYhIhaMRqOStQBGEwOGiCUExS5EQFE0ICUoKL1Ik7K0rbMz957fH2eIaNQFt8HyeT3PPv7hMuV7752dzz3nfA9u27FTcPuXn4TbiiyTr7ZLC33LuWAPOh8KcdNg1yXOhUW4G0FfRIwpbJmUZqf+30jq1/nfw3JJx+48sX5pkXWjVbu/4zMrAJYYiH3fNo+/6X01t/TqZ29/4Ynoy5tXbN7lx7f6bhS2XuL8bp34b5NE6KnDV9ukHXzOm++6/r5x/ufgRnrX4JppLQNWG9idYozfuVpt+9SVw6hfJ6vSP2tCoRBTpkwhCAI7fPjwwn/84x8bd+3atSkWi8221mYlzoHWQMtEfU7A3ejNOOimRkldwe1Bx+vg86M4cdMsL3GMd/JVk8jNiRpuA3YYY/aHQqF4ampqkJWVZTt37syUKVMIhw//K2716tXZtm3bdtwa/Nol3GRcbowpqsybduPGjePhhx+2HTp02Lt27dp3YrHYgsT12CURkE/CdW/POITrMp747MhJhPLPE9fkYmBdUlJSYadOnYJp06ZRv379b309Q4cOZeTIkXm+7z+XCOmhb3muFUBhOdQthBtBNwfOK8/zWLBgATNmzPCHDRu2fe3atW/6vv++tbZFoj4dcQ2cGyVuxh18XX/zdfuJvzG5ifPw88SNoY+BzzzP29u4cWP/97//PVdddVWZvrFErXJxTVznl/D3f3vimqk0ycnJNhqNrsPNuKhewnfGf3ueF3ga0Pn6MbdWNy0ORUFBATVq1PDi8fg5wNOJi/mHiuH2Gx7eoUOHnMWLF6vAUmlOHjuMTfHiLCAbuILSrT/fAgzy4M1Vgx8I1CCu7J3z2G0sLtzXCLcX9E9KuKGyBriymvEWb/rthFJ92BdGizhnwh2sLM73Avflu0biy3hW4vOwEV/tEXvgC1Jx4kvF9sQX6h2JL385QG4YilskpQXv3PR70pJL3sFy3bZNdJ/8gCm0Nvxd79uDeLOkVH/+b7JLfLwlaz6jx7TxJrG843u/LRoIqnuh2OJB91G7ks7ri8aP5qO83SF7CDfXPYi3Tk73P7hlbJm+hsAGbNqxjXP+9gB7Aj+UOBcyEuG8Nm6/70aJGx7pfLVdo02E8j2Jc+ELXCO0nQb2GSiq5YX8Wf1v54Tj6uGZ7/+y1umPt7AxVhQKvqcWBvzaXji+asTjhzwSHdiAXXv30HPSfXxRHDUxbBhItu691Ey814zEeV838Z4PDqQHHLgJsR83yrs1cd7vBXabxJ7pqcaL963X1I79xRCSI0lH/OdPEATk5OTQs2dPVq1aZRLbaiVZa9MS9alx0PnQIPGZkMG37x19YJbDgc+J3MT5kZMI5oUHhfQ8Y0wREPM8L56enu7XrVvXzpgxg6ysLFJTUymLwY7HH3+c2267zUSj0ZI/E4zxMzMz49u2beMImFmD7/sMGzaMv/3tbyY/Pz8CVLPW1kmcqw0SN1Tq4mZyhg46TwsS1+Lmg87TncaYfcaYoszMzPjcuXNp0aLFIY0In3rqqSxevDhk3ef0t9UtqFWrVnzHjh0lzkiKRqOkpKSk4ZZ+XF/CjckNQL9q1ap9mJuba7+rRn369GHevHlm7969YWttqrW2dqJGxyVq1CBxLkcOOk8P/B1bn/jvLmPMTiA/PT09dtZZZ9mXX36ZSKR8dn201lK7dm2zf//+MCUPoti0tLTY/v37K23GV69evZg5c6YXj8fDh3IdnXTSSfFPP/1UX/AU0H+Y1q1bs3Llyoa4tT4X8sOnDoFrojEwFArNycnJCWrUqKECS4X7/Iu1dH9urOfDuYnzuklpvrvhtgS6vm4o/MWKEeNU4PK7odIM1+H5tBL++C0HrqrlhT5dN3J8mX1RuPefTzNt4zJ2+XHiWONb61nw7Nf3twY3eh8A1sMEYYONYGyDSAr9Wv+Ym3tcqQN6FAus5a4Xn+T1zSvZ5cfwsSZurQm+fi4cfH4GJnFOhIwJwmBrhyJ0q9OQCf1v5UhcErM1ZwcPvP535udsYXssSjHWBO69myDx/ux375P83/frYWzIYMMYmxmO0LlWfX538bXfOkPgaLJ161YeffRR5s6dy5YtW9i/f7/xfZ/i4mITBIGX+J5prLXfdnBtYmrrgSBhjTE2FArZSCRijTFEIhFbo0YNsrKyaNeuHX369KFnz566+Eowb948Ro0axapVq8jPzzfFxcXG933PWut981gYY4LEj01KSgoikYg97rjjOPPMM3nqqaeozFmehxnQNwJXp6enf5CXl1diuHn99df561//ypIlS9i3b58pKioysVjMO+h8NQedp0Hi3AxSUlJsSkqKbdWqFSNGjKBXr1464UQBvTLFYjGSk5Mj1tohwD24u5A/VHEiEN15xRVX7H/hhRdUYKlwXR8ZzufRghrAfcANfDXa9UPkA/cZyL67bfdiNYgrHyc+dBP7gqAdbhZO2+/L0rgp5P0ahCKrlo94vNxfW1FxlOJYDJuYtRoJR0hNTsagTSuONdZaCqKFxH3XEsBgSE5KOipGiQ+XH/gUFBUR2K+WfXrGkJqcQjiklYTxeJyCggK++X3T8zzS0tLQMr+KPRaFhYUEQfDfY5CamvqDlgMc7QH9+z67CgsLicViOk+l0ugvx2GIRCLUqlUrtnv37lnAr3DNUn6oJNwo/NTp06fPC4LAav2FVKQgCFgTLfRwa7B6lDKcg+uG/K8UY2JDe16lApfTMct3o1J1KXmveovbdaKwYXJ6hby+lKRkUpKSdaAEYwzpKWnHxHsNeSGqp6XroH/XF81wmIyMDBXiCDkW1atXVyFK+Ow61KaCIuVFifAwXXzxxRhj1gEzOdAh9odrBFwejUYzunXrpuJKheryyHBi2Bq4rq/Hl/LhYsAsYPV5tRseCZ2uq6R3P1lA4JbWtDjEgP4lkPfqoDEqnoiIiIgCetVz5513EgqF8hMBfVspHy4J+BnQadGiRd6yZctUYKkQn6xbyfpYUQi3I8F5lK4xHLimKW97kD/mov4qcDmZ8OGbBK5ZVWdc5/TvEwfWG8gvqeGWiIiIiCigH5WaNGlCs2bNAr7aWsEvxcMZXMfIy2OxWM1+/fqpwFIhrn35SXzXffgq3EyO0gx5+4lrYXG9cMRvUv94FbgcWGv5MHeXwW351I2Sm1QWAJ+FIB7W2jkRERERBfSqatasWXietxN4FbfGszSSgJ7AmcuWLQu9+eabKrCUq2fffZ31saIw8FPcDI7Sjp7vA141sGPmNaNV4HLyk8dGUmRtOnAJh7bN43bg0wwvpP1FRURERBTQq66GDRtywgkn+MC7uC7JQSkfsh7wf77vN7zmmmtUYClXt81/y1g4Afg/3L6fpREAS4A5mV443jCzrgpcDl58/20+LcoLA12Bn+P2FC7puCwEtnaoXkcFFBEREVFAr9rGjBmDMWY7MI3Sj6KHge7Ahbt27UoeNGiQCizl4vqJD5Jvg2SgdyLslXbu8z7gnwa2jep4jgpcxvwg4MJxtzN43ishC6cAv8FNcTeHcFzmGMgb2OVnKqSIiIiIAnrVds0111CrVq0YMAe3Hr20o+i1gWutta0nT55sDuxRKVJWgiBg+o6NBmgH9KfkLuAlPiRu9HxWuvFi1557iYr8HSG749hbaPXQEIZNfoSN27dQGC0i7vv/sy8wuLXmsXiM254fT+OHh5j5+XvSArfm/F7gJ5S8PaYFVgL/TjVe/LyOXXUQRERERI4S2ge9FCZNmmQvueSSjdbaabi9pGuU4uE84GTg2sLCwt81b95895o1a9DaUSmrcN5y7FDi2ExgAPAjStcYDiAXeNnAxglnXWpV5W/XfOxQ9gZ+baDx5K2rdk6edN9eA8Ue+AZjPYP1EgfDBwKLCbCehRQLTYELgSuBNhxav4B84HVg/QM/vkDHRUREREQB/djQu3dv6tevX7x169a3cOtCz6J0sxJScA2g3v/iiy9enTRpUmzAgAEqtJTauDdfYHfgJwHnA72A5NJmfmAR8EYtL1Tc+7SfqsjfodAGBrdv+cOJz9w1Fpb7sA3sXiz5QBS3l3wKkAE0ADoBXYAmQDUO7YbKgVkNL6UZU3T1Ty/SARARERFRQD92jB49mptvvnmztfZ53Ah4aToyGeB4YKDv+8uHDRu28tprr7UaRZfSWLp2Bb9f9oGxcBIwCNeUsLR2A88Z2DLi5LNU5O+RGMJOwjXmawycihssjyV+ot8I6GmJ/ybhbvgdzkyHL4G/GFg7sFkHa4zRARARkWPoz63I0U/Jr5QGDx5MZmZmMfAv4N+Ubl90cE27ugHX5efn12zevLmKLKXSZ9p4Ym5q+w24UdnSXvc+8BHwTobnFQ+64DIV+dCZxDWeBKTj+gDUxW2b1gxoCNQCUhO/dzgJOxd4HngzMxQuvuvS61VtEREREQX0Y8/zzz+P53mbgSnArjJ4yFTgcuDCDRs2JKmru/xQl/9pDHsDPwW4GOibOLdKawfwrIEtL/YeqCIfXjgvLwXAdOCJJMzuuQPuUrVFRER/Y0UU0I9N55xzDq1atYoD7wBv46aqlvZDpiEwxFp7ysSJE714PK5Cy2GJxWPM2rc9ZKEzMJjS73kOUAy8AcxuFE6Od2l9sgpd+fKAV4AHPNjwysU32Hq1s1QVEREREQX0Y9f06dMJhUI5wN+BdZR+LYwHdACGxmKxhrVr1zZ5eXkqtBySPXn7aTh2mAngRODXQNsyuN4tsAaYEoLd/7jy1yp05QqA7cDTwBgPVt53yk+D005qr8qIiIiIKKAf21q2bMmpp54aAAuAf+KmnJZWMnAR0D8vLy+jY8eOKrSUnKKt5fQ/jSaGrQVch+vcHimDh84HpgIL26VWD1oef6KKfZiHpgwfJx/4GLgLuD8Mq2dfPiy48cLLVWURERERBXQBmDdvHhkZGXnAc8BC3AhXadUArrPWXrxmzZqU7t27q9DynYIg4LRHhrPdj6fh+hj0B6qXxUPjmiA+l2pM/uyhD6rYhyixKM4H4qUI6TbxGLmJz5YHgUEGnqnjhXa+1fcme0rT1iq2iIiIiAK6/PeLuDFkZ2dbY8xq3LTT7WX0/f4E4NfW2m7z5s0LT548WcWWb5X92rOsKS6MAGcDQ3AdwsvCFtz2Xesf6tJD23cdhmrGs8Ba4BngA2AzsB+3nt/H3fywB/0EiZ9YIpBvAz7FzV64Fehv4I9JmKXXHn9S8ZqR4+ncsq0KLSIiIlIVMqW12jawLFlrady4MZs2bcoC7gP+D7encWnFgdnAbeFweOnYsWODYcOGqeDyX3f/4ynGr/tPKHD7bD8EnI7bqqu0CnE3nO6pGwrnfH7r4yigH7r3PvmYK9+aZKLWJluoDzTH9QZoCmTi9j1PPvARkgjuBbi95jcAXyR+NnmQl2q8+Bk1jmPKDXcQ8kIqsIiIVEnRaJSUlJQ0YCxwPRD+nl/fCFydnp7+QV5ensKNKKDL1wVBQGpqqldcXNwBmAD8mLKZrVCE20rpzpSUlLULFy60bdq0UcGFj1d+yoUvP+H50Bq4H7gQt9d2qU9n4ENgcASz7MvfTrCewvlhs9ZSGC3izAm3sykWNXFsKICIgYh1XzgO/nwIDMQtxAzEwxi/digczOw/inq1MkmKRFRQERFRQFdAlyoqrBKUPc/zGDRoUDBu3Lhl1tongUa4kbPSSsE1jdtTVFR0f5cuXbbMnTvXqnncse21+XMYMGeq8aExMBLXFK4swrnFTW1/wsDKoc07Kpz/QMYY0lJSWTj8kQN1jS9e81n8oXemFu6MFlBsXbsKAyR5Hsclp3PdaT/j7FO6qHgiIiIix9L3Ro2gl5/jjz+eLVu2ZAF3A78CUsvoofcBfwb+WLNmzR2rV6+2mZmZKvgxaP22zXSdfL8psrYBcBtl1xQOXKfwJ4H764Yiu1eMeFwFFxERkQqhEXQ5VqlJXDmaPXs2ycnJu4CngI9wDaHKQg3gWmDw3r1767Rs2dIsXrxYBT/GLF69/EA4rwsMA/qVYTj3gbnAX5KN2fP+9WNUcBERERERBfSjV8uWLRk/frz1PG8FMA5YT9nthVwHuBG4ac+ePZnnnHOO2bVrl4p+jFi3bRM9X5pgiqw9LhHOBwA1y+jhLbAKeNyDtY+e3stm1aytoouIiMiRSqPmooAuh2bAgAG0bt06BswCJgJ7y+ihDa4D9GDgpr1792a2aNHCLFq0SEWv4l799xy6Tn7gwMj5kEQ4L8sEvQs3tf39lklp8Su6X6Cii4iISGUIgK3AcmDZ9/ysAvI9T9FGjn5ag14BrLVkZWWRk5PTALgH+CVltx7dJgLVn4AnqlWrtmPJkiW2efPmKnwVtHrzBs6Y8pAptrY+buT8OqAW7oZNWcgH/grcV9ML7Vw3Ypy2VBMREZEK5/s+aWlpXiwWy7LW1ijhu07MGLOtRYsWhStXrlTxRAFdSvbZZ5/Rvn17LxaLtQMeBn5K2XXRt0AOMAl4PCkpacsdd9xh77zzThW+CrnjhT/x5IZPPB9OAH6NawhXqwyfIga8DYxMwqycd/VvbfOGjVV4ERERqRTZ2dk888wz5OXl8X2ZJRQK0aRJE5566imaNm2qwokCuhyaAQMG8Mwzz4SDIDg7EdLbUrbLDPYCzwOPhEKhtVOnTg369OmjwlcBL77/NoPnvRIKoAUwArgUyCjDpwiARcBwDz68rlEb/8Ff3KzCi4iIiIgooFddffv2Zfr06SnW2itw090bUXbTkwHygNeAhz3P+7R79+7xWbNmEQqFVPyjkO/7nDt+FEsLc8MWOuD2Oe8BpJXh01hgDTDawCt9shoV/3XAKBVfREREREQBvepr2rQpGzZsqGGtvREYjmv2VpaKgA+APxhj5rVs2bJo+fLlCulHYTg/OfsWtvmxVAvdgVHA6UByGT/VNuABYGKTSEr+4uGPqPgiIiIiIgrox4acnBxat27Nrl27jgNuBW7A7W1eluLAJ8CjxphXq1Wrtv/zzz+3DRs21AE4CmzasY0fT7rXRF1TlD64hnBtKLu+BQfsBh4HxmV64d2rRj6OQU3hREREREQqg/YiqAR16tRh6dKlpKSk7AQmANNw3bPLUhhoD9xnrR2Sm5vb8MQTT/RuueUWHYAj3PBnH6PDxN95UWtPAIbilkK0K4dwngs8B/wl2Zg982+8T+FcRERERKQSaQS9Es2ePZsLLrjAxGKxlsAY4BIgpYyfxgL7gFeB8caYpU2aNCl+8cUX6dy5sw7CEWThqmVc/cqf2e7Hkqy7uTIEuAg3u6Ksk3MB8CJwbwSz4ZXeN9jTf9ReB0FERERERAH92DVnzhzOO+88z/f9NsC9wAWU/RpjgCiwBHjMGDMjPT1974wZM2zXrl11EI4Ai9d8Rs9p403U2poWfoab0t6hnM6FIuAV4O4QrH7nsqFB+2Yn6SCIiIiIiCigy/jx4xk2bFgoCIL2uJH088opmAXAFtxWbM+EQqHVjRs3ji9btozU1FQdiEpQGC2i4+Mj2eHHwgE0A64FrgKOp3yWoBQBbwD3eLA8+9QLg/5n99aBEBERERFRQJcDJk6cyMCBA0PxeLw9bs3xueUU0i1uevOHwJ+MMe+mpqbuHThwoM3OztaBqEC3PvsYz25ZeaAR3FnAYKArkA7lshj84HD+2d/Pucrv8eMzdSBERERERBTQ5Wup2VpGjhxJdnb2gZH0u4HzyymkA/jAZuCfwGRjzIq6desWjxs3jksvvfSoqJfFutsNuDhrMBhz5Dc5mzbvX4yY9wp7Az/JQkvgauAyoBFQXnvhFQGvA7/zYPmYdmcGQ3pepQtPREREREQBXb7LSy+9xGWXXRYKguAU4C7ceuSUcno6CxQCS4GngRmhUOjLzp07+7NnzyYtLe2IqEkQBHz+xToemfVP3svZwv7ANz7WC9wU8APTwAMP/LAxtroJ2Z9kHs/In11JswaN8I6Q0B7z45wzbhTLi/JCARyHW8pwPW6teRqUWwv1gkQ4v8+D5c+f1y84v1M3XWwiIiIiIgroUpKHHnqIUaNGeUEQtAFGAb1x057LLQPj9sOeDTwLfJCUlLSvU6dOwbx58yptVHr+iqUMeH0iX8aLTQBJFqrjRpmb4AJuDSD1oBsN+4DtwDpgs4HcEMROjKTYBb/JrtTR9R7jbmdB/h7ju/dwOm7U/Fwgi/Ld7jAXt43fgx6suufks4Kbe1ypi0xERERERAFdDtXMmTPp0aOH5/t+c2AEbgp0jXJ+2hiwFTfa+gLwSWpqau64ceNs//79CYfDFfLecwvyOe/Ju1hVXBC2UAc4CTgj8dMMqImbVRDmq1Fnm3j9RcAeYBUwF7fWfoUHe05KTg9m3ngvaSkV0xAvCAJenT+HG+dOM0XWpgNtEsexD3ACECnnl7AHmAJke7DxlV7XB2e06aiLS0REREREAV0O16RJkxg4cKCJxWKNgJuAa4BMym8q9AHFwBrgLeAl4JNIJJLfvn17O3/+/HIdif7JoyNZVpTr+bvUq1oAAA8ySURBVO59ng1cDHQBGgBJh/Heg8T7+AKYB7wMfBDB7OuWUSd4efC95fYerLX0nnAH8/P2mDg21UIroC/QC2h9mO/jB70E3EyCvwBPRTBbnzyzr+3b9VxdVCIiIiIiCujyQ61evZp27dqZaDSalQjog3Gjr145P7XF7Z2+AXgNt2/28kgksr9Dhw7Byy+/TIMGDcrsyb7cvZPTn76HvYGfBvwYGIBbo52JGykvjRjwJfAq8IyBT08IJ0UX/noskXDZDWLvydvPxU/fy8qifFOMrYYL5j1wI+YtcdPxy/vmSpA4ZuOAvydhdi+4drRtXLehLiYREREREQV0Ka2PP/6YCy+8kN27d2dYay8BfoObLl0Rc84tbiR6PW6N+uvAx57n7a1Vq1b8pptuYsyYMaUaVX/q7anc9Z85phibCfwiEc5bU/ZTwKPAEuAJ4NV04+2fdvENtkvrU0r1oE++PZU/fPIeuYEfCiADaA/0TNxgaIGbjl8RC+BjwCfAHw28VtML5b12+TDanNhCF5GIiIiIiAK6lJXCwkLatGnDhg0bUqy13XHr0s/AjcpWhANrvHcAH+FGo+cDm6tVq1b00Ucf2bZt2x72gy5avZwLp00wMWwjYCiueVp5TuMPgC3An4C/phqzc8kNv7N1a2UeeiGsZceeHEZPf5o3d35hCq1NBuoBHXHT2M/ETclPrqBgDq5T+1zgQQMf1QtFoouGPkRqcoouHhERERERBXQpD7179+aNN94IB0FwEjAEuBTXNK0iW5T7uI7py4GZwEvGmFWdOnWKf/zxx4f8IFPfn8FN814xMeyJwO3A5bgR6Iq42bALeBIYn268nZtGjrclzQL49+dLGTnjWVZG803c2lDgOrK3Bn4K/AQ4GdfULlyBx8LiOvD/A5jgwYpza9bzXxx0ty4WEREREREFdClvo0aNIjs72ysuLq4H9MPtpd0ECFXwS7FAPrAQeNgYM7t9+/ZFixcvLvEf7sndR7snbjf5NqifCOf9gWoV/NpzgMeB8ZleeM/qkeO+9gtFxVE+27iGx96dzuzdW02+DULWddI/AeiEm8LeCaiPm8ngVXD9fWAt8GdgSgSz47rGbYP7rxqsi0RERERERAFdKsrcuXPp27cvOTk51XHdzocAXam4Ke/fDIqfArcbY/41efLkeL9+/b73H3R9ZDgrogUZFm4GhgO1K+F1W2AzcJeBF3rWblj05/63csGf7mR1NN8UW3vw/ustcFPYTwPa4W6IpFdCKD+gEPgA1wxuTnXj5T3X81ec0baTLg4REREREQV0qfB0aS3t27dn2bJlkSAIWgGDcNt51aVyRnNnATfXqVNn9c6dO7+zcdyo5yfw1MZlYevWa2cDjanYKfoHC3CN1W42MN+6LdCqJ2rYBNfw7TRcR/ZM3A2QUCW/3u3AP4GnPFjVJJIS+/g32eW6/Z2IiIiIiCigyyGE9LvuuouHH37YRKPROsBFiaDeHtekrCLlAvcYY8a99957xd27d/+fXyiOxWiUPcxErW2OG/09l4qfmv8/Lwt4E5iDa+7WOhHO6+PW94crMZAfLAr8B7d2/vUIJmdw0/b27suuVzgXEREREVFAlyNFfn4+bdu2ZePGjcnW2jbADbgR6npU3Gh6AMwAru/UqdOWhQsX/s8v3DftabJXL0qxcCNwN25N95GgOPETSfx4R9DhPTBq/jrwpIHlx4XC0UVDHiI9JVUnv4iIiIhIFeGpBFVDeno669ev51e/+lU0OTl5CXAH8FvgXdwWXLaCzqcTgePWr1//rUO6T6/9DxYaAZdRMR3bD1USrkld8hF0XdjEsXsfuA0YHcYsufS4E6MrRoxTOBcRERERqWI0gl4F+b5Ps2bN2LRpU1IQBE1xnd4vBZriRofL02bgmpSUlDmFhYXBwf+jOB6j3tihYeu6zj/AkTN6fiSKARuAl4DJBtbU9kLFK4Y/RjgUUnVERERERKogjaBXQaFQiPXr13PXXXcVV6tWbSXwB+AmYApuqrRfjk9vD/r5mh5P3IF13drPpmK3VDuaBMBO3L7mQ4D7kzCfD23aoXj1iHEK5yIiIiIiVZhG0Kt62gsCzj//fN577z0vHo9nJsLx1UAXoBZlf5NmOfCLrKysT3fs2PG1k6veg4NN1NrOwGRcIzb5igX24faUnwz8y4OdbVOq+XOGPojn6V6aiIiIiEhVF1YJqjbP83jnnXeYP39+8Mtf/nLH+vXr/xkEwXzgfOAKoBNuNLssEqAPrAV2tmjR4mvhvCBaRLG1HtASt4WZfBXM84GlwIvAWwY2Znrh2B+6XUzfbueqQiIiIiIiCuhSlXTp0oU1a9awdevWeMeOHdfv2LFjkrX2Hdy2bD8H2uGatpUmqOcCMz3P2/Xuu+9+7X9MnDUd3Pr3lmh6+4Fgngd8DkwHXjawPs14xXN+OcK2OP5EVUhERERE5BijebPHmAYNGvDll19y2223FWdlZa01xjyJ25LtDtw+4Hv4YWvUY8B7wBtZWVmxSOTrveiWfrkB6zqkn0Dl73temQJgPzAPuBe4DngkzXgr+zdsFd382wkK5yIiIiIixyitQT+GWWtZtWoVXbt2NXv27Emy1tYHfgpcAnQGsji0ru8xYAEwOhwOfzB16lT/kksu+dovXDR+NPPydmcBk4AegDnGyh0HcoBPgFeAmQY2JRkTfevnQ2z7Zq0xxuikFBERERE5hmmK+zHMGEOrVq3Iycmxd9xxR3TixIkbtm/f/vcgCGYCPwZ+lgjsjfj2/cEPjAa/BzxijPno/PPP9y+++OL/ea4iPw5u5PxYmt5ugSjwJTAXeAv4t4Et1YwXv6juifYPl99IRppm/IuIiIiIiEbQ5Rv279/Pqaeeytq1a0O+71e31rZIBPUzgcaJgG0TwXwt8Dbwejgc3tKrV6/4Sy+99K2Pe/Zjv2VJ4f76uEZoZ1C1R9DjwF5gFe7mxVvAZwb21fHC8Q9vuIesmrV1somIiIiIyNdoBF2+JiMjgxUrVrBkyRJ/+PDhexcsWLCwoKBgqbX2b0A9oAZu5HwvsM3zvF21a9eOjR49mmHDhn3n44bc9O0ANx2+qrGJ91YAbMKtL38Pt2XaF0nGFDWKJNu7z7iEi049SyeZiIiIiIgooMuh69ChA7Nnz8Zaa6PRaHGPHj02ffbZZ5tyc3ONMYYaNWrYVq1a8dZbb5GcnFzi41UPJ8FXI8tVKZTvB7YBnyZC+QfAJgN5GV4ofmeHs7n23D54Wl8uIiIiIiIK6FIaxhhSUlKYPXv2wcH0sDXJqMO7+3dGrVuPbTn6prjbxE8Mt53cOmAR8HEinK8zsD/NeH7btAyb3XsAP2rcXCeQiIiIiIgooMuRpU/77kzavCKKW7deDKQcBS87wDV5ywW2J0L5UmA+sMLALqAgxRi/b92mNrvfMJLCER1sERERERFRQJcjV7c2HTCv41vXOG0PUP8IfalRYAduLfnnwGpgZSKcbzOwN4zxM7xQ0L56bR6+5Hqa1D9eB1hERERERBTQ5ehgjKGa8YL9NliTCL/1OPKmuQfA+8B9wHoD+4AiA7EMLxR0q1mXp68ZSVIkSWvKRUREREREAV2OXlMuGkCv1/6yBbduuz2QdIS9xEJgpoGP6oUixT+qVosr2nXl0m7nYxTIRUREREREAV2qiq4ntSf0Gvk+zAD6cuRNc98IzEo1Xmz5rY8plIuIiIiISIXyVAKpsJPN86gfTgpwTdbeA/wj6OVFgTeAVT0yT7AK5yIiIiIiooAuVdqj516FB7uBF4DNR8jLssAK4KUQFDxw6UAdKBERERERUUCXqu3s9qfRIJwUxzVjexW37ruy7cfdMPjk/FoNgswatXSgREREREREAV2qNgMsHf4IEcwe4GncdPfKnOpejFsT/1w14xVMGXiHDpKIiIiIiCigyzFy0hmPYS06WeP2Gc/G7TMeVMJL8YGFwKMebJl0fj8MWnsuIiIiIiIK6HIMGf3zAbRMSosB7wBjcR3UbQWH80+BBwws6la9jn9uh9N1YEREREREpNIYa62qIJWmzdihbI3HqgFXACOA5kConJ82DvwHuM/A2+fWqBv9x41jdDBEREREREQBXY5dRcVR2j16KzlBPM3ChcBwoCOQXE5PWQDMAx4y8H6LpNTo/N9k60CIiIiIiIgCukh+UQE//8u9LMjfm2ShPTAIuAioQ9ktw/CBL4GpwF8NrOhRu0H82Rvu1AEQEREREREFdJGD/fLP9zJj91bPhyzcaHo/XGCvVYqg7gO7gAXA34FZSZg9VzVsYR+9+hYVXUREREREFNBFvs3SdSu4YtoEdvjxiIXGQHfgAqALkImb+n5gjfo3W67bxE8AFAHbgQ+Bt4B5BrY2CifHp1x6E21ObKFii4iIiIiIArpISdZt28RPJv+BPBtELNTENY/rApyMC+51gHQgkvgnMSAPN1q+EViMGzVfb2BfLS8U//D6MdStlaniioiIiIiIArrI4Xpp3r/4w/y32BwrMlFrvQDScFPeqwOpfDWa7uMawOUCezwoTDEmaJFczQ499Xz6dj1XxRQREREREQV0kdKyWGLxOAVFhVw28X42R/MpsgEHTl9jIMV4HJ+cztRf3U56ShqRcFiFExERERERBXQREREREREROXSeSiAiIiIiIiKigC4iIiIiIiIiCugiIiIiIiIiCugiIiIiIiIiooAuIiIiIiIiooAuIiIiIiIiIgroIiIiIiIiIgroIiIiIiIiIqKALiIiIiIiIqKALiIiIiIiIiIK6CIiIiIiIiIK6CIiIiIiIiKigC4iIiIiIiKigC4iIiIiIiIiCugiIiIiIiIiCugiIiIiIiIiooAuIiIiIiIiooAuIiIiIiIiIgroIiIiIiIiIgroIiIiIiIiIqKALiIiIiIiIqKALiIiIiIiIiIK6CIiIiIiIiIK6CIiIiIiIiKigC4iIiIiIiKigC4iIiIiIiIiCugiIiIiIiIiCugiIiIiIiIiooAuIiIiIiIiooAuIiIiIiIiIgroIiIiIiIiIgroIiIiIiIiIqKALiIiIiIiIqKALiIiIiIiIiIK6CIiIiIiIiIK6CIiIiIiIiKigC4iIiIiIiKigC4iIiIiIiIiCugiIiIiIiIiCugiIiIiIiIiooAuIiIiIiIiooAuIiIiIiIiIgroIiIiIiIiIgroIiIiIiIiIlJO/h/UFvxendHVNwAAAABJRU5ErkJggg==;" vertex="1" parent="1">
          <mxGeometry x="179.76" y="430" width="120.24" height="40" as="geometry" />
        </mxCell>
        <mxCell id="ehcvicH4qVkx-c4z3jnV-9" value="Or other graph engine" style="text;html=1;strokeColor=none;fillColor=none;align=center;verticalAlign=middle;whiteSpace=wrap;rounded=0;" vertex="1" parent="1">
          <mxGeometry x="180" y="470" width="140" height="30" as="geometry" />
        </mxCell>
        <mxCell id="ehcvicH4qVkx-c4z3jnV-11" value="Knowledge graph" style="text;html=1;align=center;verticalAlign=middle;resizable=0;points=[];autosize=1;strokeColor=none;fillColor=none;" vertex="1" parent="1">
          <mxGeometry x="535" y="520" width="110" height="20" as="geometry" />
        </mxCell>
        <mxCell id="ehcvicH4qVkx-c4z3jnV-12" value="Ingestion service" style="text;html=1;align=center;verticalAlign=middle;resizable=0;points=[];autosize=1;strokeColor=none;fillColor=none;" vertex="1" parent="1">
          <mxGeometry x="360" y="340" width="110" height="20" as="geometry" />
        </mxCell>
        <mxCell id="ehcvicH4qVkx-c4z3jnV-15" value="" style="endArrow=classic;startArrow=classic;html=1;rounded=0;entryX=0;entryY=0.5;entryDx=0;entryDy=0;entryPerimeter=0;exitX=1;exitY=0.75;exitDx=0;exitDy=0;" edge="1" parent="1" source="ehcvicH4qVkx-c4z3jnV-8" target="ehcvicH4qVkx-c4z3jnV-7">
          <mxGeometry width="50" height="50" relative="1" as="geometry">
            <mxPoint x="320" y="460" as="sourcePoint" />
            <mxPoint x="440" y="280" as="targetPoint" />
          </mxGeometry>
        </mxCell>
        <mxCell id="ehcvicH4qVkx-c4z3jnV-16" value="ontology" style="ellipse;whiteSpace=wrap;html=1;fillColor=#d5e8d4;strokeColor=#82b366;" vertex="1" parent="1">
          <mxGeometry x="520" y="440" width="50" height="30" as="geometry" />
        </mxCell>
        <mxCell id="ehcvicH4qVkx-c4z3jnV-22" style="edgeStyle=orthogonalEdgeStyle;rounded=0;orthogonalLoop=1;jettySize=auto;html=1;exitX=0.5;exitY=1;exitDx=0;exitDy=0;entryX=0.5;entryY=0;entryDx=0;entryDy=0;" edge="1" parent="1" source="ehcvicH4qVkx-c4z3jnV-17" target="ehcvicH4qVkx-c4z3jnV-8">
          <mxGeometry relative="1" as="geometry" />
        </mxCell>
        <mxCell id="ehcvicH4qVkx-c4z3jnV-17" value="data ingestion" style="rounded=0;whiteSpace=wrap;html=1;fillColor=#d5e8d4;strokeColor=#82b366;" vertex="1" parent="1">
          <mxGeometry x="331" y="240" width="120" height="60" as="geometry" />
        </mxCell>
        <mxCell id="ehcvicH4qVkx-c4z3jnV-21" value="" style="edgeStyle=orthogonalEdgeStyle;rounded=0;orthogonalLoop=1;jettySize=auto;html=1;" edge="1" parent="1" source="ehcvicH4qVkx-c4z3jnV-18" target="ehcvicH4qVkx-c4z3jnV-17">
          <mxGeometry relative="1" as="geometry" />
        </mxCell>
        <mxCell id="ehcvicH4qVkx-c4z3jnV-18" value="Data source" style="whiteSpace=wrap;html=1;aspect=fixed;fillColor=#f5f5f5;fontColor=#333333;strokeColor=#666666;" vertex="1" parent="1">
          <mxGeometry x="351" y="80" width="80" height="80" as="geometry" />
        </mxCell>
        <mxCell id="ehcvicH4qVkx-c4z3jnV-19" value="" style="endArrow=classic;html=1;rounded=0;exitX=0.5;exitY=1;exitDx=0;exitDy=0;exitPerimeter=0;entryX=0.5;entryY=0;entryDx=0;entryDy=0;" edge="1" parent="1" source="ehcvicH4qVkx-c4z3jnV-1" target="ehcvicH4qVkx-c4z3jnV-5">
          <mxGeometry width="50" height="50" relative="1" as="geometry">
            <mxPoint x="390" y="330" as="sourcePoint" />
            <mxPoint x="440" y="280" as="targetPoint" />
          </mxGeometry>
        </mxCell>
        <mxCell id="ehcvicH4qVkx-c4z3jnV-20" value="" style="endArrow=classic;html=1;rounded=0;exitX=0.5;exitY=1;exitDx=0;exitDy=0;" edge="1" parent="1" source="ehcvicH4qVkx-c4z3jnV-5" target="ehcvicH4qVkx-c4z3jnV-8">
          <mxGeometry width="50" height="50" relative="1" as="geometry">
            <mxPoint x="390" y="330" as="sourcePoint" />
            <mxPoint x="440" y="280" as="targetPoint" />
          </mxGeometry>
        </mxCell>
        <mxCell id="ehcvicH4qVkx-c4z3jnV-24" value="characteristic extractor" style="rounded=0;whiteSpace=wrap;html=1;dashed=1;fillColor=#f8cecc;strokeColor=#b85450;" vertex="1" parent="1">
          <mxGeometry x="485" y="200" width="155" height="140" as="geometry" />
        </mxCell>
        <mxCell id="ehcvicH4qVkx-c4z3jnV-25" value="" style="endArrow=classic;startArrow=classic;html=1;rounded=0;fontFamily=Helvetica;fontSize=12;fontColor=default;entryX=0.5;entryY=1;entryDx=0;entryDy=0;fillColor=#f8cecc;strokeColor=#b85450;" edge="1" parent="1" source="ehcvicH4qVkx-c4z3jnV-8" target="ehcvicH4qVkx-c4z3jnV-24">
          <mxGeometry width="50" height="50" relative="1" as="geometry">
            <mxPoint x="390" y="330" as="sourcePoint" />
            <mxPoint x="440" y="280" as="targetPoint" />
          </mxGeometry>
        </mxCell>
        <mxCell id="ehcvicH4qVkx-c4z3jnV-26" value="&lt;font color=&quot;#EA6B66&quot;&gt;characteristic updating service&lt;/font&gt;" style="text;html=1;align=center;verticalAlign=middle;resizable=0;points=[];autosize=1;strokeColor=none;fillColor=none;fontSize=12;fontFamily=Helvetica;fontColor=default;" vertex="1" parent="1">
          <mxGeometry x="470" y="340" width="180" height="20" as="geometry" />
        </mxCell>
      </root>
    </mxGraphModel>
  </diagram>
</mxfile>
